<svg xmlns="http://www.w3.org/2000/svg" viewBox="0 0 145 90"><g id="Layer_2" data-name="Layer 2"><g id="Layer_1-2" data-name="Layer 1"><g style="opacity:0.4"><polygon points="46.297 29.241 12.495 87.787 80.099 87.787 46.297 29.241" style="fill:#6441e2"/></g><path d="M10.45918,58.89536V15.282a2.59685,2.59685,0,0,1,2.61167-2.56508H75.757A2.59685,2.59685,0,0,1,78.36867,15.282v8.30044" style="fill:none;stroke:#000;stroke-linecap:round;stroke-linejoin:round;stroke-width:2.3562943935394287px"/><path d="M83.80142,74.90977a5.80293,5.80293,0,0,1-5.85325,5.71662H62.48953a5.80174,5.80174,0,0,1-5.8519-5.71662V37.44805a5.80163,5.80163,0,0,1,5.8519-5.71648H77.94817a5.80282,5.80282,0,0,1,5.85325,5.71648Z" style="fill:none;stroke:#000;stroke-linecap:round;stroke-linejoin:round;stroke-width:2.3562943935394287px"/><line x1="67.50315" y1="37.16433" x2="72.93591" y2="37.16433" style="fill:none;stroke:#000;stroke-linecap:round;stroke-linejoin:round;stroke-width:2.3562943935394287px"/><line x1="5.02642" y1="60.25355" x2="32.19022" y2="60.25355" style="fill:none;stroke:#000;stroke-linecap:round;stroke-linejoin:round;stroke-width:2.3562943935394287px"/><path d="M45.77211,71.11907H7.573a2.64368,2.64368,0,0,1-2.54661-2.71638V60.25355" style="fill:none;stroke:#000;stroke-linecap:round;stroke-linejoin:round;stroke-width:2.3562943935394287px"/><polyline points="45.772 62.97 32.19 62.97 32.19 60.254" style="fill:none;stroke:#000;stroke-linecap:round;stroke-linejoin:round;stroke-width:2.3562943935394287px"/><circle cx="70.21953" cy="73.83545" r="2.71638"/><circle cx="115.58656" cy="26.59996" r="24.38701" style="fill:#00b6e0;opacity:0.5"/><path d="M126.45754,30.69562a3.21119,3.21119,0,1,0,3.2112,3.21118,3.21475,3.21475,0,0,0-3.2112-3.21118m1.89885,3.21118a1.899,1.899,0,1,1-1.89885-1.89883,1.90146,1.90146,0,0,1,1.89885,1.89883" style="fill:#fff;stroke:#fff;stroke-miterlimit:10;stroke-width:0.5890735983848572px"/><path d="M104.71558,30.69562a3.21119,3.21119,0,1,0,3.2112,3.21118,3.21475,3.21475,0,0,0-3.2112-3.21118m1.89923,3.21118a1.899,1.899,0,1,1-1.89923-1.89883,1.90154,1.90154,0,0,1,1.89923,1.89883" style="fill:#fff;stroke:#fff;stroke-miterlimit:10;stroke-width:0.5890735983848572px"/><path d="M115.58647,13.10579a3.21119,3.21119,0,1,0,3.21119,3.21118,3.21474,3.21474,0,0,0-3.21119-3.21118m1.89885,3.21118a1.89885,1.89885,0,1,1-1.89885-1.89883,1.90089,1.90089,0,0,1,1.89885,1.89883" style="fill:#fff;stroke:#fff;stroke-miterlimit:10;stroke-width:0.5890735983848572px"/><path d="M125.27061,31.05214,118.181,18.2832l-.06837-.12365-.0889.10983a2.87643,2.87643,0,0,1-.88312.73257l-.08517.04557.04669.08441L123.37923,30.435a36.53988,36.53988,0,0,0-7.69963-.75947,36.093,36.093,0,0,0-7.926.755l6.27446-11.29861.04669-.08441-.08517-.04557a2.86526,2.86526,0,0,1-.882-.73221l-.08891-.11019-.06873.12365-7.09,12.76894-.05492.099.10647.037c.34742.12141.66607.55477.947.80168l.04707.04111.0564-.02654.02354-.00486a33.83072,33.83072,0,0,1,8.69406-.95782,34.65685,34.65685,0,0,1,8.427.95223l.04707.09153.09116-.07361.01942-.01607c.28541-.25177.60555-.68624.95447-.80726l.10684-.03737Z" style="fill:#fff;stroke:#fff;stroke-miterlimit:10;stroke-width:0.5890735983848572px"/><rect width="145" height="90" style="fill:none"/></g></g></svg>