<svg xmlns="http://www.w3.org/2000/svg" viewBox="0 0 145 90"><g id="Layer_2" data-name="Layer 2"><g id="Layer_1-2" data-name="Layer 1"><g style="opacity:0.6600000262260437"><path d="M75.04689,55.95917A22.04057,22.04057,0,1,1,97.0881,33.91861,22.04057,22.04057,0,0,1,75.04689,55.95917Zm0-41.48447A19.44391,19.44391,0,1,0,94.49143,33.91861,19.44391,19.44391,0,0,0,75.04689,14.4747Z" style="fill:#fc326c"/></g><g style="opacity:0.6600000262260437"><circle cx="75.04723" cy="33.91862" r="14.49091" style="fill:#fc326c"/></g><path d="M56.27048,78.86162H47.00974a5.03652,5.03652,0,0,1-5.0209-5.02091V16.3667a5.0342,5.0342,0,0,1,5.0209-5.01831H83.70786a5.03422,5.03422,0,0,1,5.0209,5.01831V49" style="fill:none;stroke:#000;stroke-linecap:round;stroke-linejoin:round;stroke-width:2.9629151821136475px"/><line x1="61.46381" y1="17.84005" x2="69.25379" y2="17.84005" style="fill:none;stroke:#000;stroke-linecap:round;stroke-linejoin:round;stroke-width:2.9629151821136475px"/><path d="M70.55342,67.17664v-31.16c0-2.98474,1.56073-5.19333,4.54546-5.19333,2.98591,0,4.54287,2.20859,4.54287,5.19333l.11918,20.03273" style="fill:none;stroke:#000;stroke-linecap:round;stroke-linejoin:round;stroke-width:2.9629151821136475px"/><path d="M79.80014,56.36141a5.26876,5.26876,0,0,1,4.65205-.69993,4.20464,4.20464,0,0,1,3.389,3.07081,5.49185,5.49185,0,0,1,4.70009-1.283A5.21222,5.21222,0,0,1,96.10536,60.936a5.3368,5.3368,0,0,1,4.42887-.43611,3.50625,3.50625,0,0,1,2.41788,3.94316c-.30056,1.68887-5.13373,19.61194-5.13373,19.61194" style="fill:none;stroke:#000;stroke-linecap:round;stroke-linejoin:round;stroke-width:2.9629151821136475px"/><path d="M53.67512,60.685c2.9846-2.404,9.12882-1.42011,11.65836,1.16136l5.21994,5.3303" style="fill:none;stroke:#000;stroke-linecap:round;stroke-linejoin:round;stroke-width:2.9629151821136475px"/><path d="M97.81838,84.05494A33.21193,33.21193,0,0,1,84.1859,86.65161a33.21223,33.21223,0,0,1-13.63248-2.59667" style="fill:none;stroke:#000;stroke-linecap:round;stroke-linejoin:round;stroke-width:2.9629151821136475px"/><path d="M70.55342,84.05494a86.12257,86.12257,0,0,1-7.51617-10.6454A106.52177,106.52177,0,0,0,53.67512,60.685" style="fill:none;stroke:#000;stroke-linecap:round;stroke-linejoin:round;stroke-width:2.9629151821136475px"/><rect width="145" height="90" style="fill:none"/></g></g></svg>