<svg xmlns="http://www.w3.org/2000/svg" viewBox="0 0 58.073 57.046"><defs><style>.cls-1{fill:#00b6e0;opacity:0.7;}.cls-2{fill:none;stroke:#000;stroke-linecap:round;stroke-linejoin:round;stroke-width:2px;}</style></defs><title>Asset 1</title><g id="Layer_2" data-name="Layer 2"><g id="Layer_1-2" data-name="Layer 1"><rect class="cls-1" x="19.644" y="5.882" width="5.658" height="57.619" transform="translate(-17.996 26.276) rotate(-45.317)"/><path class="cls-2" d="M34.957,14.218S18.15,5.309,5.172,1.445c-3.357-1-4.184.684-1.71,3.161C11.26,12.4,24.254,25.4,24.254,25.4"/><path class="cls-2" d="M16.1,46.615c14.374-10.771,25.989-22.39,36.9-33.3,2.527-2.528,5.675-8.858,3.147-11.385h0C53.615-.6,47.284,2.55,44.757,5.077c-10.909,10.909-22.528,22.525-33.3,36.9a6.319,6.319,0,0,0-8.936,0h0L16.108,55.564h0A6.333,6.333,0,0,0,16.1,46.615Z"/><path class="cls-2" d="M43.854,23.117S52.764,39.923,56.628,52.9c1,3.357-.685,4.185-3.161,1.71L32.675,33.819"/><path class="cls-2" d="M43.2,6.748c1.856-1.856,5.184-1.538,7.432.709s2.565,5.576.709,7.432"/></g></g></svg>