<?xml version="1.0" encoding="utf-8"?>
<!-- Generator: Adobe Illustrator 24.1.0, SVG Export Plug-In . SVG Version: 6.00 Build 0)  -->
<svg version="1.1" id="Layer_1" xmlns="http://www.w3.org/2000/svg" xmlns:xlink="http://www.w3.org/1999/xlink" x="0px" y="0px"
	 viewBox="0 0 354.1 100" style="enable-background:new 0 0 354.1 100;" xml:space="preserve">
<style type="text/css">
	.st0{fill:#FFFFFF;}
	.st1{fill:#F01F30;}
</style>
<g id="Layer_2_1_">
	<g id="Layer_1-2">
		<path class="st0" d="M120.6,49c0.7,0,0.9,0.2,0.9,0.9v2.6c0,0.7-0.2,0.9-0.9,0.9h-13c-0.7,0-0.9-0.2-0.9-0.9V32.1
			c0-0.7,0.2-0.9,0.9-0.9h3.4c0.7,0,0.9,0.2,0.9,0.9V49H120.6z"/>
		<path class="st0" d="M129.4,31.2h3.4c0.5,0,0.9,0.4,0.9,0.8c0,0,0,0,0,0v20.4c0,0.5-0.4,0.8-0.9,0.8l0,0h-3.4
			c-0.5,0-0.9-0.4-0.9-0.9V32.1C128.5,31.6,128.9,31.2,129.4,31.2z"/>
		<path class="st0" d="M151.9,49.3c4,0,6.2-3.6,6.2-7c0-3.5-2.1-7-6.2-7c-3.9,0-6.2,3.5-6.2,7C145.7,45.7,148,49.3,151.9,49.3
			 M151.9,30.8c6.3-0.1,11.5,5,11.5,11.4s-5,11.5-11.4,11.5s-11.5-5-11.5-11.4c0,0,0-0.1,0-0.1C140.5,36,145.6,30.9,151.9,30.8"/>
		<path class="st0" d="M174.6,52.5c0,0.7-0.2,0.9-0.9,0.9h-3.4c-0.7,0-0.9-0.2-0.9-0.9V31.1c0-0.2,0.1-0.3,0.3-0.3h0.3
			c0.2,0,0.4,0.1,0.6,0.3L184,43.2V32.1c0-0.7,0.2-0.9,0.9-0.9h3.4c0.7,0,0.9,0.2,0.9,0.9v21.4c0,0.2-0.1,0.3-0.3,0.3h-0.3
			c-0.2,0-0.4-0.1-0.6-0.3l-13.4-12.2L174.6,52.5z"/>
		<path class="st0" d="M207.7,37.5c0,2.5,2.8,3.1,6.2,3.6c3.9,0.5,7.3,1.7,7.3,5.8c0,3.3-2.5,6.3-7.8,6.3c-2.9,0.1-5.8-0.7-8.2-2.3
			c-0.3-0.2-0.3-0.3-0.1-0.7l0.6-1c0.2-0.3,0.3-0.4,0.7-0.2c2,1.3,4.4,2,6.8,2c2.8,0,5.7-0.9,5.7-4.1c0-2.5-2.3-3.4-6.3-3.9
			c-3.3-0.5-7.2-1.5-7.2-5.5c0-2.4,1.8-6.4,7.7-6.4c2.7,0,5.3,0.8,7.5,2.3c0.3,0.2,0.3,0.4,0.2,0.7l-0.6,0.9
			c-0.2,0.3-0.4,0.5-0.7,0.2c-1.8-1.3-3.9-2-6.1-2C208.7,33.3,207.7,35.9,207.7,37.5"/>
		<path class="st0" d="M243.5,31.5c0.4,0,0.5,0.1,0.5,0.5v1.2c0,0.4-0.1,0.5-0.5,0.5h-7.3v18.7c0,0.4-0.1,0.5-0.5,0.5h-1.5
			c-0.4,0-0.5-0.1-0.5-0.5V33.7h-7.3c-0.4,0-0.5-0.1-0.5-0.5V32c0-0.4,0.1-0.5,0.5-0.5H243.5z"/>
		<path class="st0" d="M249.2,44.1V32c0-0.4,0.1-0.5,0.5-0.5h1.4c0.4,0,0.5,0.1,0.5,0.5v12c0,5.1,2.6,7.2,6.2,7.2s6.2-2.1,6.2-7.2
			V32c0-0.4,0.1-0.5,0.5-0.5h1.5c0.4,0,0.5,0.1,0.5,0.5v12.1c0,6.1-3.7,9.2-8.6,9.2S249.2,50.2,249.2,44.1"/>
		<path class="st0" d="M277,33.6v17.2h5.5c5,0,8.2-4,8.2-8.6c0-4.6-3.2-8.6-8.2-8.6H277z M282.5,31.5c5.8-0.1,10.5,4.5,10.6,10.3
			c0,0.1,0,0.3,0,0.4c0.1,5.8-4.5,10.6-10.2,10.7c-0.1,0-0.3,0-0.4,0h-7.5c-0.3,0-0.5-0.1-0.5-0.5V32c0-0.4,0.1-0.5,0.5-0.5
			L282.5,31.5z"/>
		<path class="st0" d="M300.4,32c0-0.4,0.1-0.5,0.5-0.5h1.5c0.4,0,0.5,0.1,0.5,0.5v20.4c0,0.4-0.1,0.5-0.5,0.5h-1.5
			c-0.4,0-0.5-0.1-0.5-0.5V32z"/>
		<path class="st0" d="M321.3,51.2c4.8,0,8.5-4.4,8.5-9c0-4.6-3.7-9-8.5-9c-4.8,0-8.5,4.3-8.5,9C312.8,46.8,316.5,51.2,321.3,51.2
			 M321.1,31.1c6.1-0.1,11.2,4.8,11.3,10.9c0.1,6.1-4.8,11.2-10.9,11.3c-6.1,0.1-11.2-4.8-11.3-10.9c0-0.1,0-0.1,0-0.2
			C310.2,36.1,315.1,31.2,321.1,31.1"/>
		<path class="st0" d="M340.6,37.5c0,2.5,2.8,3.1,6.2,3.6c3.9,0.5,7.3,1.7,7.3,5.8c0,3.3-2.5,6.3-7.8,6.3c-2.9,0.1-5.8-0.7-8.3-2.4
			c-0.3-0.2-0.3-0.3-0.1-0.7l0.6-1c0.2-0.3,0.3-0.4,0.7-0.2c2,1.3,4.4,2,6.8,2c2.8,0,5.7-0.9,5.7-4.1c0-2.5-2.3-3.4-6.3-3.9
			c-3.3-0.5-7.2-1.5-7.2-5.5c0-2.4,1.8-6.4,7.7-6.4c2.7,0,5.3,0.8,7.5,2.3c0.3,0.2,0.3,0.4,0.2,0.7l-0.6,0.9
			c-0.2,0.3-0.4,0.5-0.7,0.2c-1.8-1.3-3.9-2-6.1-2C341.6,33.3,340.6,35.9,340.6,37.5"/>
		<path class="st0" d="M107,77.6c-0.2,0-0.2,0-0.2-0.2v-9.7c0-0.2,0.1-0.2,0.2-0.2h3.5c1.7,0,3.6,0.7,3.6,2.8c0,1-0.7,1.8-1.7,2.1v0
			c1.1,0.3,2,1.3,2,2.4c0,2-1.7,2.8-3.6,2.8L107,77.6z M110.7,71.9c1.2,0,2.1-0.6,2.1-1.6c0-1.3-1-1.9-2.5-1.9h-2.5v3.5L110.7,71.9z
			 M110.8,76.6c1.8,0,2.5-0.7,2.5-1.9c0-1-1-1.8-2.3-1.8h-3v3.7L110.8,76.6z"/>
		<path class="st0" d="M116.5,67.7c-0.1-0.2-0.1-0.2,0.1-0.2h0.8c0.1,0,0.2,0.1,0.3,0.2l3.1,4.9l3.1-4.9c0.1-0.2,0.2-0.2,0.3-0.2
			h0.8c0.2,0,0.2,0.1,0.1,0.2l-3.8,5.9v3.7c0,0.2-0.1,0.2-0.2,0.2h-0.7c-0.2,0-0.2-0.1-0.2-0.2v-3.7L116.5,67.7z"/>
		<path class="st0" d="M142.2,77.2c0.1,0.1,0,0.3-0.1,0.3c0,0-0.1,0-0.1,0h-1.6c-0.2,0-0.3-0.1-0.4-0.3l-0.9-1.7h-4.3l-0.9,1.7
			c-0.1,0.3-0.2,0.3-0.4,0.3h-1.6c-0.1,0-0.2-0.1-0.2-0.2c0,0,0-0.1,0-0.1l5-9.7c0.1-0.2,0.2-0.3,0.3-0.3h0c0.1,0,0.2,0.1,0.3,0.3
			L142.2,77.2z M136.9,70.7l-1.4,3h2.9L136.9,70.7L136.9,70.7z"/>
		<path class="st0" d="M146.8,73.6v3.7c0,0.3-0.1,0.3-0.3,0.3h-1.4c-0.3,0-0.3-0.1-0.3-0.3v-9.4c0-0.3,0.1-0.3,0.3-0.3h3.6
			c1.7,0,3.7,0.7,3.7,3s-2,3.1-3.7,3.1L146.8,73.6z M148.6,71.8c1.3,0,1.7-0.5,1.7-1.3c0-0.8-0.5-1.3-1.7-1.3h-1.8v2.7H148.6z"/>
		<path class="st0" d="M157,73.6v3.7c0,0.3-0.1,0.3-0.3,0.3h-1.4c-0.3,0-0.3-0.1-0.3-0.3v-9.4c0-0.3,0.1-0.3,0.3-0.3h3.6
			c1.7,0,3.7,0.7,3.7,3s-2,3.1-3.7,3.1L157,73.6z M158.8,71.8c1.3,0,1.7-0.5,1.7-1.3c0-0.8-0.5-1.3-1.7-1.3H157v2.7H158.8z"/>
		<path class="st0" d="M171.5,75.8c0.3,0,0.3,0.1,0.3,0.3v1.1c0,0.3-0.1,0.3-0.3,0.3h-6c-0.3,0-0.3-0.1-0.3-0.3v-9.4
			c0-0.3,0.1-0.3,0.3-0.3h1.4c0.3,0,0.3,0.1,0.3,0.3v8L171.5,75.8z"/>
		<path class="st0" d="M179.1,67.3c2.9,0,5.3,2.3,5.3,5.2c0,2.9-2.3,5.3-5.2,5.3c-2.9,0-5.3-2.3-5.3-5.2c0,0,0,0,0-0.1
			C173.9,69.6,176.2,67.3,179.1,67.3z M178.8,76c1.9,0.2,3.7-1.2,3.9-3.1s-1.2-3.7-3.1-3.9c-1.9-0.2-3.7,1.2-3.9,3.1
			c0,0.1,0,0.3,0,0.4C175.6,74.3,176.9,75.9,178.8,76C178.8,76,178.8,76,178.8,76L178.8,76z"/>
		<path class="st0" d="M186.1,67.8c-0.1-0.1,0-0.3,0.1-0.3c0,0,0.1,0,0.1,0h1.6c0.2,0,0.3,0.1,0.4,0.3l3,6.1l3-6.1
			c0.1-0.3,0.2-0.3,0.4-0.3h1.6c0.1,0,0.2,0.1,0.2,0.2c0,0,0,0.1,0,0.1l-5,9.7c-0.1,0.2-0.2,0.3-0.3,0.3h0c-0.1,0-0.1-0.1-0.3-0.3
			L186.1,67.8z"/>
		<path class="st0" d="M199.2,67.8c0-0.3,0.1-0.3,0.3-0.3h1.4c0.3,0,0.3,0.1,0.3,0.3v9.4c0,0.3-0.1,0.3-0.3,0.3h-1.4
			c-0.3,0-0.3-0.1-0.3-0.3V67.8z"/>
		<path class="st0" d="M207,77.2c0,0.3-0.1,0.3-0.3,0.3h-1.4c-0.3,0-0.3-0.1-0.3-0.3v-9.8c0-0.1,0-0.1,0.1-0.1h0.1
			c0.1,0,0.2,0,0.2,0.1l6.3,6.2v-5.8c0-0.3,0.1-0.3,0.3-0.3h1.3c0.3,0,0.4,0.1,0.4,0.3v9.9c0,0.1,0,0.1-0.1,0.1h-0.1
			c-0.1,0-0.2-0.1-0.3-0.1l-6.3-6.2L207,77.2z"/>
		<rect class="st0" width="78.7" height="100"/>
		<path class="st1" d="M60,38c-2-1.9-4.2-3.5-6.7-4.8c-1-0.8-1.6-1.9-1.7-3.1c0-1.4,0.2-2.8,0.7-4.2l-7.2,3
			c-0.3-0.2-0.5-0.3-0.7-0.5c-1.9-1.5-3.5-3.2-4.9-5.2l0,0c-1.4,2-3.1,3.7-5,5.2c-0.2,0.2-0.5,0.3-0.7,0.5l-7.2-3
			c0.4,1.4,0.7,2.8,0.7,4.2c-0.1,1.2-0.7,2.4-1.7,3.1l0,0c-2.5,1.2-4.8,2.8-6.7,4.8c-4.1,4.4-5.9,12.4-3.4,17.9
			c0.1,0.2,0.9,1.6,0.9,1.6c1.7-2.8,3.2-3,3.2-3C17.4,58.6,17,66,21.2,71c2.6,2.9,5.6,5.5,8.7,7.8c3.3,2.8,6.4,5.7,9.4,8.8
			c0,0,6-6.1,9.4-8.8c3.2-2.3,6.1-4.9,8.7-7.8c4.2-5,3.8-12.4,1.7-16.5c0,0,1.5,0.2,3.2,3c0,0,0.8-1.4,0.9-1.6
			C65.9,50.4,64.1,42.4,60,38z M39.3,75.1c-1.9-0.4-3.7-1.1-5.4-2.2l5.4-2.4l5.4,2.4C43.1,73.9,41.3,74.6,39.3,75.1z M53.7,52.4
			c1.1,1.5,1.8,3.3,1.8,5.1c0,3.1-2.1,6.8-2.1,6.8l-2.4-2.4c0,0,0.9,4-2.8,8.1c-0.3,0.3-0.6,0.6-1,0.9l-6.6-3v-2.3
			c1.7-1.3,4.3-3.5,4.3-4.2l0,0l-0.1-7.7c0.1,0,0.1,0,0.2,0c3.2,0.1,6.4-3.6,6.4-3.6c0.1-0.2,0.2-0.4,0.2-0.6c0-0.4-0.4-0.9-0.8-0.8
			l-7.1,1.9c-0.3,0-0.5,0.2-0.6,0.4C43,51.2,43,51.4,43,51.7l0.4,9c-1.4-0.3-2.6,0.4-4,0.4s-2.6-0.7-4-0.4l0.4-9
			c0-0.2,0-0.5-0.1-0.7c-0.1-0.2-0.4-0.4-0.6-0.4l-7.1-1.9c-0.4-0.1-0.8,0.3-0.8,0.8c0,0.2,0.1,0.4,0.2,0.6c0,0,3.2,3.7,6.4,3.6
			c0.1,0,0.1,0,0.2,0l-0.1,7.7h0c0,0.8,2.5,2.9,4.1,4.2V68L31.4,71c-0.3-0.3-0.6-0.6-1-0.9c-3.8-4.2-2.8-8.1-2.8-8.1l-2.4,2.4
			c0,0-2.1-3.7-2.1-6.8c0-1.9,0.6-3.7,1.8-5.2c-2.4-0.9-3.8-3.3-3.4-5.8c0.6-2.7,3.6-4.3,6.6-3.6c1.3,0.3,2.5,1,3.3,2l0,0
			c0,0-0.2-3-4.9-5.5c6.2-1.3,9-0.4,10.7,0.8l2-3.4l2,3.4c1.7-1.1,4.6-2.1,10.7-0.8C47.3,42,47.1,45,47.1,45l0,0c0.9-1,2-1.7,3.3-2
			c3-0.7,6,0.9,6.6,3.6C57.5,49.1,56.1,51.5,53.7,52.4L53.7,52.4z"/>
		<path class="st0" d="M39.3,75.1c-1.9-0.4-3.7-1.1-5.4-2.2l5.4-2.4l5.4,2.4C43.1,73.9,41.3,74.6,39.3,75.1z"/>
		<path class="st0" d="M53.7,52.3c1.1,1.5,1.8,3.3,1.8,5.2c0,3.1-2.1,6.8-2.1,6.8l-2.4-2.4c0,0,0.9,4-2.8,8.1
			c-0.3,0.3-0.6,0.6-1,0.9l-6.6-3v-2.3c1.7-1.3,4.3-3.5,4.3-4.2l0,0l-0.1-7.7c0.1,0,0.1,0,0.2,0c3.2,0.1,6.4-3.6,6.4-3.6
			c0.1-0.2,0.2-0.4,0.2-0.6c0-0.4-0.4-0.9-0.8-0.8l-7.1,1.9c-0.3,0-0.5,0.2-0.6,0.4C43,51.2,43,51.4,43,51.7l0.4,9
			c-1.4-0.3-2.6,0.4-4,0.4s-2.6-0.7-4-0.4l0.4-9c0-0.2,0-0.5-0.1-0.7c-0.1-0.2-0.4-0.4-0.6-0.4l-7.1-1.9c-0.4-0.1-0.8,0.3-0.8,0.8
			c0,0.2,0.1,0.4,0.2,0.6c0,0,3.2,3.7,6.4,3.6c0.1,0,0.1,0,0.2,0l-0.1,7.7h0c0,0.8,2.5,2.9,4.1,4.2V68L31.4,71
			c-0.3-0.3-0.6-0.6-1-0.9c-3.8-4.2-2.8-8.1-2.8-8.1l-2.4,2.4c0,0-2.1-3.7-2.1-6.8c0-1.9,0.6-3.7,1.8-5.2c-2.4-0.9-3.8-3.3-3.4-5.8
			c0.6-2.7,3.6-4.3,6.6-3.6c1.3,0.3,2.5,1,3.3,2l0,0c0,0-0.2-3-4.9-5.5c6.2-1.3,9-0.4,10.7,0.8l2-3.4l2,3.4
			c1.7-1.1,4.6-2.1,10.7-0.8C47.3,42,47.1,45,47.1,45l0,0c0.9-1,2-1.7,3.3-2c3-0.7,6,0.9,6.6,3.6C57.5,49.1,56.1,51.5,53.7,52.3z"/>
	</g>
</g>
</svg>
