<svg xmlns="http://www.w3.org/2000/svg" viewBox="0 0 248.87611 125.592"><g id="Layer_2" data-name="Layer 2"><g id="Layer_1-2" data-name="Layer 1"><path d="M248.87171,125.59155V0H.00664V125.59155Z"/><polygon points="75.983 28.08 57.4 55.953 38.177 28.08 57.4 1.167 75.983 28.08" style="fill:#fff;opacity:0.05999999865889549;isolation:isolate"/><polygon points="66.964 28.616 57.862 42.269 48.446 28.616 57.862 15.433 66.964 28.616"/><polygon points="40.992 49.999 22.41 77.872 3.186 49.999 22.41 23.086 40.992 49.999" style="fill:#fff;opacity:0.05999999865889549;isolation:isolate"/><polygon points="31.973 50.535 22.871 64.188 13.455 50.535 22.871 37.352 31.973 50.535"/><path d="M.00664,63.90106q.00036,5.81167,0,11.61475L4.14977,69.6026Z" style="fill:#fff;opacity:0.07000000029802322;isolation:isolate"/><polygon points="66.042 86.861 47.459 114.734 28.236 86.861 47.459 59.948 66.042 86.861" style="fill:#fff;opacity:0.05999999865889549;isolation:isolate"/><polygon points="57.023 87.397 47.921 101.05 38.505 87.397 47.921 74.214 57.023 87.397"/><polygon points="138.005 44.936 119.423 72.81 100.2 44.936 119.423 18.023 138.005 44.936" style="fill:#fff;opacity:0.05999999865889549;isolation:isolate"/><polygon points="128.987 45.472 119.884 59.126 110.468 45.472 119.884 32.29 128.987 45.472"/><polygon points="102.564 64.602 83.981 92.475 64.758 64.602 83.981 37.689 102.564 64.602" style="fill:#fff;opacity:0.05999999865889549;isolation:isolate"/><polygon points="93.545 65.138 84.443 78.791 75.027 65.138 84.443 51.955 93.545 65.138"/><polygon points="113.481 125.592 128.064 103.717 109.482 76.804 90.259 103.717 105.345 125.592 113.481 125.592" style="fill:#fff;opacity:0.05999999865889549;isolation:isolate"/><polygon points="119.046 104.253 109.944 117.906 100.527 104.253 109.944 91.071 119.046 104.253"/><polygon points="200.028 61.792 181.445 89.666 162.222 61.792 181.445 34.88 200.028 61.792" style="fill:#fff;opacity:0.05999999865889549;isolation:isolate"/><polygon points="191.009 62.329 181.907 75.982 172.491 62.329 181.907 49.146 191.009 62.329"/><polygon points="164.586 81.458 146.004 109.332 126.781 81.458 146.004 54.545 164.586 81.458" style="fill:#fff;opacity:0.05999999865889549;isolation:isolate"/><polygon points="155.568 81.994 146.465 95.648 137.049 81.994 146.465 68.812 155.568 81.994"/><polygon points="88.949 125.592 90.242 123.652 71.659 96.74 52.436 123.652 53.774 125.592 88.949 125.592" style="fill:#fff;opacity:0.05999999865889549;isolation:isolate"/><polygon points="80.288 125.592 81.223 124.188 72.121 111.006 62.705 124.188 63.673 125.592 80.288 125.592"/><polygon points="42.561 125.592 36.218 116.405 29.656 125.592 42.561 125.592" style="fill:#fff;opacity:0.05999999865889549;isolation:isolate"/><path d="M15.28581,125.59155l13.51583-20.2738L10.21923,78.40527.00664,92.46252c-.02269,8.98621.04462,17.739,0,26.02326L4.978,125.59155Z" style="fill:#fff;opacity:0.05999999865889549;isolation:isolate"/><polygon points="19.783 105.854 10.681 119.507 1.265 105.854 10.681 92.672 19.783 105.854"/><polygon points="144.533 125.592 136.931 114.583 129.068 125.592 144.533 125.592" style="fill:#fff;opacity:0.05999999865889549;isolation:isolate"/><polygon points="186.741 125.592 190.087 120.573 171.504 93.661 152.281 120.573 155.742 125.592 186.741 125.592" style="fill:#fff;opacity:0.05999999865889549;isolation:isolate"/><polygon points="178.08 125.592 181.068 121.109 171.966 107.927 162.55 121.109 165.641 125.592 178.08 125.592"/><path d="M248.87171,67.52155q-.00183-4.18086,0-8.36207L243.46727,51.736l-19.2232,26.9125,19.2232,27.87359,5.40444-7.76313C248.8324,88.34644,248.86739,77.934,248.87171,67.52155Z" style="fill:#fff;opacity:0.05999999865889549;isolation:isolate"/><path d="M248.87171,72.7583l-4.94283-6.756L234.5128,79.18479l9.41608,13.65338,4.94283-7.01928C248.86475,81.46529,248.87447,77.11176,248.87171,72.7583Z"/><polygon points="208.424 125.592 226.609 98.314 208.026 71.402 188.803 98.314 207.615 125.592 208.424 125.592" style="fill:#fff;opacity:0.05999999865889549;isolation:isolate"/><polygon points="217.59 98.85 208.488 112.504 199.072 98.85 208.488 85.668 217.59 98.85"/><polygon points="117.386 0 129.148 17.054 140.517 0 117.386 0" style="fill:#fff;opacity:0.05999999865889549;isolation:isolate"/><polygon points="127.285 0 129.609 3.37 131.856 0 127.285 0"/><polygon points="216.584 0 228.346 17.054 239.715 0 216.584 0" style="fill:#fff;opacity:0.05999999865889549;isolation:isolate"/><polygon points="226.483 0 228.808 3.37 231.054 0 226.483 0"/><polygon points="81.65 0 74.702 9.727 93.925 37.6 112.508 9.727 105.792 0 81.65 0" style="fill:#fff;opacity:0.05999999865889549;isolation:isolate"/><polygon points="92.302 0 84.971 10.263 94.387 23.916 103.489 10.263 96.403 0 92.302 0"/><polygon points="18.151 0 31.753 19.723 44.901 0 18.151 0" style="fill:#fff;opacity:0.05999999865889549;isolation:isolate"/><polygon points="28.05 0 32.215 6.039 36.24 0 28.05 0"/><polygon points="176.259 0 171.947 6.037 191.17 33.91 209.752 6.037 205.584 0 176.259 0" style="fill:#fff;opacity:0.05999999865889549;isolation:isolate"/><polygon points="186.911 0 182.215 6.573 191.632 20.227 200.734 6.573 196.195 0 186.911 0"/><polygon points="154.864 0 136.505 25.703 155.729 53.576 174.311 25.703 156.564 0 154.864 0" style="fill:#fff;opacity:0.05999999865889549;isolation:isolate"/><polygon points="165.292 26.239 156.19 39.892 146.774 26.239 156.19 13.056 165.292 26.239"/><path d="M248.87171,10.4259c-.01721,1.61182-.04938-2.88043,0-8.36773l-14.90285,20.835,14.90285,21.2395C248.902,32.89649,248.7621,21.6609,248.87171,10.4259Z" style="fill:#fff;opacity:0.05999999865889549;isolation:isolate"/><path d="M248.87171,17.08545l-4.63417,6.344,4.63417,6.436Z"/><path d="M.00664,0c.08246,11.363-.0329,24.03748,0,37.28577L16.14708,13.335,6.93964,0Z" style="fill:#fff;opacity:0.05999999865889549;isolation:isolate"/><path d="M.00664,3.59363c.04361,6.56964-.02783,13.53485,0,20.76166l7.12189-10.484Z"/><polygon points="236.333 42.559 217.751 70.432 198.528 42.559 217.751 15.646 236.333 42.559" style="fill:#fff;opacity:0.05999999865889549;isolation:isolate"/><polygon points="227.315 43.095 218.213 56.748 208.797 43.095 218.213 29.913 227.315 43.095"/><polygon points="243.935 125.592 233.527 110.517 222.759 125.592 243.935 125.592" style="fill:#fff;opacity:0.05999999865889549;isolation:isolate"/></g></g></svg>