<svg xmlns="http://www.w3.org/2000/svg" viewBox="0 0 58.7254 74.7666"><g id="Layer_2" data-name="Layer 2"><g id="Page_1" data-name="Page 1"><polygon points="37.184 0 29.347 13.529 40.645 32.649 58.725 0 37.184 0 37.184 0" style="fill:#ea232a"/><path d="M38.0275,28.2181l2.6181,4.4308,1.2977-2.3437A22.64316,22.64316,0,0,0,38.0561,28.23l-.0286-.0119Z" style="fill:#d9181e"/><path d="M21.3797,0l20.263,34.3386a25.46167,25.46167,0,0,0-21.5773,1.2643L0,0Z" style="fill:#f04f3b"/><path d="M38.0283,28.2135l3.6145,6.1251a25.46159,25.46159,0,0,0-21.5773,1.2643l-3.068-5.4437a22.80442,22.80442,0,0,1,21.0308-1.9457Z" style="fill:#ee3928"/><path d="M45.3617,35.9017a22.74306,22.74306,0,1,0,.0712.0708l-.0028.00289c-.0238-.02409-.0463-.04879-.0684-.07369Z" style="fill:#fede3b"/><path d="M36.6835,34.3409a19.16629,19.16629,0,1,1-7.3217-1.4536,19.18972,19.18972,0,0,1,7.3217,1.4536Z" style="fill:#fec90b"/><path d="M41.3441,40.0612a16.84948,16.84948,0,1,0,3.682,5.4984,16.964,16.964,0,0,0-3.682-5.4984Z" style="fill:#fede3b"/><path d="M41.3443,40.0612A16.94529,16.94529,0,0,0,15.185,61.333a17.01919,17.01919,0,0,1-.9997-14.9859A16.9618,16.9618,0,0,1,44.027,43.5427a17.06743,17.06743,0,0,0-2.6827-3.4815Z" style="fill:#fab617"/><path d="M42.712,38.3052q.3891.3486.7583.7177A19.15615,19.15615,0,0,1,16.5777,66.3092,19.15609,19.15609,0,0,0,42.9076,38.4979l-.1956-.1927Z" style="fill:#fab617"/><polygon points="29.362 42.443 32.524 49.036 39.457 49.777 34.163 54.822 35.601 61.644 29.167 58.168 23.123 61.644 24.441 54.451 19.267 49.777 26.515 48.807 29.362 42.443 29.362 42.443" style="fill:#f2be16;fill-rule:evenodd"/><path d="M29.362,42.4426l.22835.47611-2.82578,6.317-7.05225.94328-.44522-.40222,7.24793-.96948,2.847-6.36471Zm3.20827,6.59846,6.88668.73573-.37925.36124-6.30426-.67357-.20317-.4234ZM23.48965,61.43329l-.36663.21091,1.28574-7.01863.28145.25423-1.20056,6.55349Z" style="fill:#fab617;fill-rule:evenodd"/></g></g></svg>