<svg xmlns="http://www.w3.org/2000/svg" viewBox="0 0 66.842 66.842"><defs><style>.cls-1,.cls-3{opacity:0.7;}.cls-2{fill:#6441e2;}.cls-3{fill:#00b6e0;}.cls-4{fill:none;stroke:#000;stroke-linecap:round;stroke-linejoin:round;stroke-width:2px;}</style></defs><title>Asset 1</title><g id="Layer_2" data-name="Layer 2"><g id="Layer_1-2" data-name="Layer 1"><g class="cls-1"><rect class="cls-2" x="5.059" y="30.49" width="57.618" height="5.658" transform="translate(-13.638 33.97) rotate(-45.317)"/></g><rect class="cls-3" x="31.282" y="5.839" width="5.658" height="57.619" transform="translate(-14.511 34.538) rotate(-45.317)"/><path class="cls-4" d="M1.871,42.016l8.595-8.595L33.417,10.466l8.6-8.6s8.27-4.04,17.633,5.323,5.323,17.632,5.323,17.632L24.826,64.975"/><path class="cls-4" d="M24.826,64.975s-8.273,4.04-17.636-5.323S1.867,42.02,1.867,42.02"/><line class="cls-4" x1="10.47" y1="33.425" x2="1.867" y2="24.826"/><path class="cls-4" d="M56.376,33.421l8.6,8.595s4.04,8.269-5.323,17.632S42.02,64.971,42.02,64.971l-8.6-8.6"/><line class="cls-4" x1="24.826" y1="1.875" x2="33.413" y2="10.461"/><path class="cls-4" d="M1.867,24.826S-2.173,16.553,7.19,7.19,24.822,1.871,24.822,1.871"/><polygon class="cls-4" points="33.421 24.778 33.421 24.778 33.421 24.778 33.421 24.778 33.421 24.778"/><polygon class="cls-4" points="29.098 29.1 29.098 29.1 29.098 29.1 29.098 29.1 29.098 29.1"/><polygon class="cls-4" points="24.776 33.423 24.776 33.423 24.776 33.423 24.776 33.423 24.776 33.423"/><polygon class="cls-4" points="29.098 37.746 29.098 37.746 29.098 37.746 29.098 37.746 29.098 37.746"/><polygon class="cls-4" points="33.421 33.423 33.421 33.423 33.421 33.423 33.421 33.423 33.421 33.423"/><polygon class="cls-4" points="37.744 29.1 37.744 29.1 37.744 29.1 37.744 29.1 37.744 29.1"/><polygon class="cls-4" points="33.421 42.068 33.421 42.068 33.421 42.068 33.421 42.068 33.421 42.068"/><polygon class="cls-4" points="37.744 37.746 37.744 37.746 37.744 37.746 37.744 37.746 37.744 37.746"/><polygon class="cls-4" points="42.066 33.423 42.066 33.423 42.066 33.423 42.066 33.423 42.066 33.423"/></g></g></svg>