<svg xmlns="http://www.w3.org/2000/svg" viewBox="0 0 130 106.106"><defs><style>.cls-1{fill:#fff;}</style></defs><title>Asset 1A</title><g id="Layer_2" data-name="Layer 2"><g id="Layer_1-2" data-name="Layer 1"><g id="cc19d6a7-e80f-491a-94c4-6d0279fc42e2"><path class="cls-1" d="M40.8571,106.1032A75.8953,75.8953,0,0,0,117,30.4564q.0008-.2481,0-.4961V26.246a54.1653,54.1653,0,0,0,13-13.8666,63.5774,63.5774,0,0,1-15.4762,4.3333A25.69,25.69,0,0,0,126.2857,2.1032a42.2192,42.2192,0,0,1-16.7143,6.19A27.1143,27.1143,0,0,0,71.81,7.0556a26.062,26.062,0,0,0-7.4286,25.3809A76.0809,76.0809,0,0,1,9.2857,4.5794a27.2381,27.2381,0,0,0,8.0476,35.9047A28.1665,28.1665,0,0,1,4.9524,37.1413v.619a25.938,25.938,0,0,0,21.6666,26,25.2579,25.2579,0,0,1-11.7619.6191A26.3715,26.3715,0,0,0,39.619,82.9508,53.6093,53.6093,0,0,1,6.1905,94.96,21.0476,21.0476,0,0,1,0,94.3413a74.5959,74.5959,0,0,0,40.8571,11.7619"/></g></g></g></svg>