<svg xmlns="http://www.w3.org/2000/svg" viewBox="0 0 71.882 62.023"><defs><style>.cls-1{opacity:0.7;}.cls-2{fill:#6441e2;}.cls-3{fill:none;stroke:#000;stroke-linecap:round;stroke-linejoin:round;stroke-width:2px;}</style></defs><title>Asset 1</title><g id="Layer_2" data-name="Layer 2"><g id="Layer_1-2" data-name="Layer 1"><g class="cls-1"><circle class="cls-2" cx="37.975" cy="9.194" r="8.994"/></g><path class="cls-3" d="M27.812,53.367l-2.32,6.267a2.137,2.137,0,0,1-2.738,1.257l-3.466-1.282a2.138,2.138,0,0,1-1.257-2.738l2.634-7.114"/><path class="cls-3" d="M47.617,53.369l2.322,6.265a2.136,2.136,0,0,0,2.737,1.257l3.465-1.282A2.137,2.137,0,0,0,57.4,56.871l-2.635-7.114"/><path class="cls-3" d="M67.55,23.742H62.809A22.464,22.464,0,0,0,58.6,17.5V1l-9.946,9.945a30.607,30.607,0,0,0-10.942-2c-14.839,0-26.869,10.305-26.869,23.018s12.03,23.018,26.869,23.018c11.455,0,21.23-6.144,25.094-14.793H67.55a3.331,3.331,0,0,0,3.332-3.331V27.074A3.332,3.332,0,0,0,67.55,23.742Z"/><path class="cls-3" d="M10.62,31.967c-5.856,0-6.438-8.2-9.62,1.637"/><path class="cls-3" d="M44.924,17.524a21.24,21.24,0,0,0-14.419,0"/></g></g></svg>