<svg xmlns="http://www.w3.org/2000/svg" viewBox="0 0 1026.7 723.4"><g id="Layer_2" data-name="Layer 2"><g id="Layer_1-2" data-name="Layer 1"><path d="M1005.2,113a129,129,0,0,0-90.8-91.4C834.4,0,513.3,0,513.3,0S192.2,0,112.2,21.6A129,129,0,0,0,21.4,113C0,193.6,0,361.7,0,361.7S0,529.8,21.5,610.4a129,129,0,0,0,90.8,91.4c80,21.6,401,21.6,401,21.6s321.1,0,401.1-21.6a129,129,0,0,0,90.8-91.4c21.5-80.6,21.5-248.7,21.5-248.7S1026.7,193.6,1005.2,113ZM408.3,514.4V209.1L676.6,361.7Z" style="fill:#fff"/></g></g></svg>