<svg xmlns="http://www.w3.org/2000/svg" viewBox="0 0 79.755 74.395"><defs><style>.cls-1{fill:#00b6e0;}.cls-2{fill:none;stroke:#000;stroke-linecap:round;stroke-linejoin:round;stroke-width:2px;}</style></defs><title>Asset 1</title><g id="Layer_2" data-name="Layer 2"><g id="Layer_1-2" data-name="Layer 1"><polygon class="cls-1" points="16.082 46.54 0 74.395 32.164 74.395 16.082 46.54"/><path class="cls-2" d="M63.762,15l14.993,6.647V63.927c0,2.35-.869,3.549-3.219,3.549H17.568c-2.35,0-5.289-1.2-5.289-3.549V21.648L28.05,15"/><path class="cls-2" d="M63.244,8.353V37.16L45.517,26.08,27.79,37.16V8.353A26.2,26.2,0,0,1,45.517,1,26.2,26.2,0,0,1,63.244,8.353Z"/><path class="cls-2" d="M27.79,8.353s2.216,8.864,17.727,17.727"/><path class="cls-2" d="M63.244,8.353S61.029,17.217,45.517,26.08"/><line class="cls-2" x1="46.552" y1="41.591" x2="46.552" y2="41.591"/><line class="cls-2" x1="46.552" y1="54.886" x2="46.552" y2="54.886"/></g></g></svg>