<svg xmlns="http://www.w3.org/2000/svg" viewBox="0 0 603.069 124.24"><title>Asset 2</title><path d="M169.09,65.042c1.233,0,1.585.352,1.585,1.585v4.922c0,1.233-.352,1.586-1.585,1.586H144.923c-1.233,0-1.585-.353-1.585-1.586V33.663c0-1.233.352-1.585,1.585-1.585h6.4c1.233,0,1.586.352,1.586,1.585V65.042Z" style="fill:#231f20"/><path d="M183.866,33.663c0-1.233.352-1.585,1.585-1.585h6.4c1.224,0,1.576.352,1.576,1.585V71.549c0,1.233-.352,1.576-1.576,1.576h-6.4c-1.233,0-1.585-.352-1.585-1.576Z" style="fill:#231f20"/><path d="M227.268,65.626c7.508,0,11.43-6.628,11.43-13.015,0-6.507-3.922-13.015-11.43-13.015-7.268,0-11.439,6.508-11.439,13.015,0,6.387,4.162,13.015,11.439,13.015m0-34.308a21.284,21.284,0,1,1-21.107,21.461c0-.059,0-.118,0-.177a21.32,21.32,0,0,1,21.108-21.284" style="fill:#231f20"/><path d="M269.483,71.549c0,1.233-.352,1.586-1.585,1.586h-6.4c-1.223,0-1.575-.353-1.575-1.586v-39.7c0-.407.111-.528.528-.528h.584a1.676,1.676,0,0,1,1.122.528l24.861,22.461V33.663c0-1.233.353-1.575,1.586-1.575H295c1.233,0,1.576.352,1.576,1.575v39.7c0,.408-.111.529-.529.529h-.584a1.636,1.636,0,0,1-1.112-.529L269.483,50.609Z" style="fill:#231f20"/><path d="M331.053,43.758c0,4.663,5.284,5.85,11.532,6.647,7.333.973,13.581,3.235,13.581,10.855,0,6.081-4.719,11.754-14.489,11.754-6.016,0-11.022-1.363-15.333-4.375-.565-.343-.565-.621-.231-1.252l1.075-1.817c.4-.621.621-.741,1.307-.343a22.994,22.994,0,0,0,12.607,3.8c5.228,0,10.688-1.706,10.688-7.611,0-4.718-4.264-6.247-11.708-7.267-6.192-.853-13.4-2.735-13.4-10.28C326.678,39.494,329.969,32,341,32c5.849,0,9.65,1.705,13.97,4.32.621.343.51.686.278,1.251l-1.075,1.761c-.343.621-.686.853-1.252.4a20.071,20.071,0,0,0-11.365-3.745c-8.63,0-10.5,4.829-10.5,7.777" style="fill:#231f20"/><path d="M397.454,32.625c.741,0,.853.232.853.909v2.271c0,.676-.167.908-.853.908H383.818V71.485c0,.676-.176.908-.853.908H380.24c-.733,0-.909-.232-.909-.908V36.713h-13.58c-.733,0-.909-.232-.909-.908V33.534c0-.686.232-.909.909-.909Z" style="fill:#231f20"/><path d="M408.188,56.032v-22.5c0-.742.232-.909.909-.909h2.669c.677,0,.909.232.909.909v22.21c0,9.437,4.774,13.414,11.587,13.414s11.588-3.977,11.588-13.414V33.534c0-.686.231-.909.908-.909h2.735c.676,0,.853.232.853.909v22.5c0,11.309-6.814,17.1-16.074,17.1s-16.084-5.794-16.084-17.1" style="fill:#231f20"/><path d="M459.757,36.491V68.527h10.28c9.261,0,15.286-7.5,15.286-16.018,0-8.575-6.025-16.018-15.286-16.018ZM470.1,32.625a19.46,19.46,0,0,1,19.775,19.138q.006.373,0,.746a19.454,19.454,0,0,1-19.016,19.882c-.252.006-.5.006-.757,0H456.188c-.621,0-.909-.232-.909-.908V33.534c0-.686.232-.909.909-.909Z" style="fill:#231f20"/><path d="M503.27,33.534c0-.686.222-.909.908-.909H506.9c.686,0,.853.232.853.909V71.485c0,.686-.176.908-.853.908h-2.725c-.686,0-.908-.222-.908-.908Z" style="fill:#231f20"/><path d="M541.842,69.158c8.973,0,15.8-8.13,15.8-16.649,0-8.575-6.814-16.639-15.8-16.639-8.862,0-15.8,8.064-15.8,16.639,0,8.519,6.934,16.649,15.8,16.649m0-37.265A20.623,20.623,0,1,1,521.505,52.8c0-.1,0-.192,0-.289a20.563,20.563,0,0,1,20.339-20.616" style="fill:#231f20"/><path d="M577.957,43.758c0,4.663,5.284,5.85,11.532,6.647,7.332.964,13.58,3.235,13.58,10.855,0,6.081-4.718,11.754-14.489,11.754-6.016,0-11.021-1.363-15.341-4.375-.566-.343-.566-.621-.223-1.252l1.076-1.817c.4-.621.621-.741,1.307-.343a22.994,22.994,0,0,0,12.607,3.8c5.228,0,10.688-1.706,10.688-7.611,0-4.718-4.264-6.247-11.708-7.267-6.192-.853-13.4-2.735-13.4-10.28,0-4.376,3.29-11.875,14.322-11.875,5.849,0,9.65,1.705,13.969,4.32.621.343.51.686.279,1.251l-1.076,1.761c-.343.621-.686.853-1.242.4a20.077,20.077,0,0,0-11.365-3.754c-8.63,0-10.512,4.838-10.512,7.786" style="fill:#231f20"/><path d="M88.349,28.46c-3.48-3.76-8.67-6.92-12.98-9.21a8.417,8.417,0,0,1-3.28-6.06c-.25-3.24,1.29-8.08,1.29-8.08l-13.91,5.87c-.48-.32-.95-.64-1.4-.97A49.354,49.354,0,0,1,48.539,0h-.01a49.457,49.457,0,0,1-9.54,10.01c-.44.33-.92.65-1.4.97L23.679,5.11s1.53,4.83,1.29,8.08a8.4,8.4,0,0,1-3.29,6.06h-.01c-4.31,2.29-9.49,5.45-12.97,9.2-7.82,8.46-11.34,23.91-6.46,34.57.2.42,1.81,3.14,1.81,3.14,3.37-5.46,6.23-5.79,6.23-5.79-4,7.87-4.79,22.21,3.26,31.85,4.84,5.8,10.94,10.34,16.85,14.98,6.64,5.21,12.17,11.12,18.13,17.04,0,0,11.5-11.83,18.14-17.04,5.91-4.65,12.01-9.18,16.85-14.98,8.04-9.65,7.26-23.98,3.25-31.86,0,0,2.87.34,6.23,5.8,0,0,1.62-2.72,1.81-3.14C99.679,52.38,96.169,36.93,88.349,28.46Zm-39.82,71.5A33.861,33.861,0,0,1,38.1,95.78l10.43-4.72,10.43,4.72A33.542,33.542,0,0,1,48.529,99.96ZM76.279,56.2a16.508,16.508,0,0,1,3.46,9.94c0,5.95-4.04,13.14-4.04,13.14l-4.54-4.64s1.8,7.64-5.43,15.66c-.6.66-1.23,1.21-1.85,1.79l-12.79-5.78V81.84c3.22-2.51,8.28-6.69,8.28-8.19v-.01l-.28-14.9c.13.01.26.02.4.02,6.22.11,12.39-6.95,12.39-6.95a1.5,1.5,0,0,0,.42-1.09c-.02-.84-.73-1.68-1.56-1.49l-13.67,3.66a1.607,1.607,0,0,0-1.17.73,1.667,1.667,0,0,0-.28,1.29l.7,17.33c-2.7-.52-5.07.83-7.77.83s-5.08-1.35-7.79-.84l.7-17.31a1.629,1.629,0,0,0-.28-1.29,1.576,1.576,0,0,0-1.17-.73l-13.67-3.66c-.83-.19-1.54.65-1.56,1.49a1.536,1.536,0,0,0,.42,1.09s6.17,7.06,12.39,6.95c.14,0,.27-.01.4-.02l-.28,14.88-.01.01c0,1.47,4.79,5.52,7.99,8.05v4.75l-12.5,5.65c-.62-.58-1.25-1.13-1.85-1.79-7.24-8.02-5.43-15.66-5.43-15.66l-4.54,4.64s-4.03-7.18-4.03-13.14A16.457,16.457,0,0,1,20.8,56.2c-4.7-1.96-7.52-6.59-6.47-11.14,1.19-5.15,6.9-8.23,12.75-6.88a11.666,11.666,0,0,1,6.42,3.9l.04-.04s-.31-5.88-9.42-10.54c11.86-2.46,17.33-.68,20.68,1.5l3.76-6.51L52.319,33c3.35-2.18,8.82-3.96,20.68-1.5-9.11,4.66-9.42,10.54-9.42,10.54l.04.04a11.688,11.688,0,0,1,6.42-3.9c5.85-1.35,11.56,1.73,12.75,6.88C83.8,49.6,80.979,54.24,76.279,56.2Z" style="fill:#231f20"/><path d="M143.337,99.086c-.2,0-.268-.053-.268-.268V87.5c0-.2.07-.268.268-.268h4.1c1.93,0,4.152.8,4.152,3.289a2.662,2.662,0,0,1-1.93,2.454v.018a3.1,3.1,0,0,1,2.373,2.828c0,2.39-1.93,3.271-4.169,3.271h-4.525Zm4.408-6.624c1.458,0,2.49-.729,2.49-1.831,0-1.556-1.137-2.25-2.88-2.25h-2.95v4.081Zm.018,5.475c2.052,0,2.9-.828,2.9-2.25,0-1.155-1.184-2.1-2.746-2.1h-3.5v4.355h3.353Z" style="fill:#231f20"/><path d="M154.468,87.5c-.116-.2-.07-.268.117-.268h.968c.169,0,.256.07.355.268l3.662,5.691,3.644-5.691c.134-.221.2-.268.373-.268h.933c.2,0,.222.088.117.268l-4.42,6.945v4.373c0,.2-.07.268-.268.268h-.764c-.2,0-.268-.07-.268-.268V94.445Z" style="fill:#231f20"/><path d="M184.514,98.684a.277.277,0,0,1-.107.374.281.281,0,0,1-.15.034h-1.883c-.268,0-.356-.088-.525-.408l-1-2.035H175.8l-1.015,2.035c-.151.32-.256.408-.525.408h-1.877a.281.281,0,0,1-.257-.408L177.972,87.4c.134-.256.186-.408.32-.408h.053c.134,0,.186.152.338.408Zm-6.2-7.644-1.7,3.556h3.423l-1.7-3.556Z" style="fill:#231f20"/><path d="M189.866,94.381v4.3c0,.32-.081.408-.408.408h-1.592c-.32,0-.408-.088-.408-.408V87.64c0-.32.1-.408.408-.408h4.169c1.965,0,4.286.811,4.286,3.557s-2.321,3.592-4.286,3.592Zm2.082-2.018c1.475,0,2.035-.595,2.035-1.574s-.56-1.557-2.035-1.557h-2.082v3.137h2.082Z" style="fill:#231f20"/><path d="M201.854,94.381v4.3c0,.32-.082.408-.408.408h-1.592c-.321,0-.408-.088-.408-.408V87.64c0-.32.1-.408.408-.408h4.169c1.965,0,4.286.811,4.286,3.557s-2.321,3.592-4.286,3.592Zm2.082-2.018c1.475,0,2.035-.595,2.035-1.574s-.56-1.557-2.035-1.557h-2.082v3.137h2.082Z" style="fill:#231f20"/><path d="M218.81,97.039c.32,0,.408.1.408.408v1.237c0,.3-.088.408-.408.408h-6.962c-.321,0-.408-.088-.408-.408V87.64c0-.32.087-.408.408-.408h1.592c.32,0,.408.088.408.408v9.4Z" style="fill:#231f20"/><path d="M227.666,87.011a6.151,6.151,0,1,1-6.081,6.221v-.07A6.161,6.161,0,0,1,227.666,87.011Zm0,10.215a4.088,4.088,0,1,0-3.644-4.064A3.835,3.835,0,0,0,227.666,97.226Z" style="fill:#231f20"/><path d="M235.847,87.634a.28.28,0,0,1,.122-.377.284.284,0,0,1,.134-.031h1.878c.268,0,.373.088.525.408l3.539,7.114,3.522-7.114c.169-.32.256-.408.524-.408h1.884a.276.276,0,0,1,.29.26.272.272,0,0,1-.034.148l-5.825,11.283c-.151.256-.2.408-.338.408h-.052c-.134,0-.169-.152-.321-.408Z" style="fill:#231f20"/><path d="M251.193,87.634c0-.32.082-.408.408-.408h1.592c.321,0,.408.1.408.408V98.678c0,.32-.087.408-.408.408H251.6c-.32,0-.408-.088-.408-.408Z" style="fill:#231f20"/><path d="M260.254,98.684c0,.32-.1.408-.408.408h-1.592c-.321,0-.408-.088-.408-.408V87.162c0-.116.035-.151.151-.151h.152a.459.459,0,0,1,.286.134l7.37,7.236V87.64c0-.32.087-.408.408-.408h1.574c.321,0,.426.088.426.408V99.162c0,.116-.035.151-.152.151h-.151a.448.448,0,0,1-.3-.151l-7.352-7.283v6.8Z" style="fill:#231f20"/></svg>