<svg xmlns="http://www.w3.org/2000/svg" viewBox="0 0 144.1973 184.64001"><g id="Layer_2" data-name="Layer 2"><g id="Layer_1-2" data-name="Layer 1"><path d="M131.26866,42.27c-5.18512-5.58514-12.87994-10.27246-19.27868-13.67871l-.00135-.00128a12.48045,12.48045,0,0,1-4.88-9c-.38-4.82,1.91-12,1.91-12L88.34587,16.30164C87.63,15.83136,86.93,15.355,86.26866,14.87c-7.8-5.74-14.17-14.87-14.17-14.87s-6.37,9.13-14.18,14.87c-.65967.48529-1.35846.96221-2.07331,1.43328L35.16863,7.59s2.29,7.18,1.92,12a12.45013,12.45013,0,0,1-4.89,9l-.00812.00793C25.7871,32.00366,18.08831,36.68848,12.92864,42.27c-11.63,12.57-16.85,35.54-9.6,51.38.28.63,2.67,4.67,2.67,4.67,5-8.12,9.25-8.62,9.26-8.62-6,11.71-7.13,33,4.83,47.35,7.19,8.62,16.25995,15.36,25,22.26,9.87,7.75,18.1,16.52,27,25.33,0,0,17.1-17.58,27-25.33,8.78-6.9,17.84-13.64,25-22.26,12-14.33,10.79-35.64,4.83-47.35,0,0,4.26.5,9.26,8.62,0,0,2.4-4,2.69-4.67C148.11864,77.81,142.89867,54.84,131.26866,42.27Zm-59.18,106.26A48.82755,48.82755,0,0,1,56.507,142.333l15.55621-7.04029L87.653,142.34814A48.85139,48.85139,0,0,1,72.08867,148.53Zm41.24-65.05a24.58021,24.58021,0,0,1,5.14,14.78c0,8.84-6,19.52-6,19.52l-6.74005-6.9s2.67,11.35-8.08,23.27c-.86737.9618-1.763,1.85566-2.67334,2.69794L75.88866,128.2099v-6.63574c4.79077-3.73535,12.30316-9.9466,12.31-12.17414l-.02008-.01361-.4029-22.15033c.19007.01777.38929.03022.603.03394,9.24.17,18.41-10.27,18.41-10.27l-.125.02307a2.26493,2.26493,0,0,0,.755-1.72308c0-1.25-1.09-2.5-2.32-2.22l-20.31,5.47a2.41026,2.41026,0,0,0-1.79,1.09,2.45981,2.45981,0,0,0-.41,1.92l1.06806,25.74182c-4.01294-.76355-7.54291,1.23559-11.5481,1.22821-4.00732-.00739-7.54956-2.0127-11.57092-1.25086L61.56865,81.56a2.46009,2.46009,0,0,0-.41-1.92,2.40995,2.40995,0,0,0-1.75-1.09l-20.31-5.44c-1.23-.28-2.31995.97-2.31995,2.22a2.26641,2.26641,0,0,0,.71119,1.68518L37.40862,77s9.17,10.49,18.41,10.32c.212-.00373.41-.01581.59876-.03339l-.4184,22.08313-.00037.00025.00031.00238-.00031.01763.00483.01471c.06939,2.2085,7.13775,8.18146,11.85516,11.92749v7.04926l-18.66675,8.448c-.90332-.837-1.79217-1.72467-2.65326-2.67945-10.75-11.92-8.08-23.27-8.08-23.27l-6.74,6.9s-6-10.68-6-19.52a24.58038,24.58038,0,0,1,5.14-14.78c-7-2.91-11.19-9.8-9.62-16.55,1.76-7.66,10.24-12.24,18.94-10.23a17.35012,17.35012,0,0,1,9.53,5.8l.06-.07s-.46-8.73-14-15.65c17.63-3.66,25.75-1,30.73,2.22l5.59-9.67,5.6,9.67c5-3.23,13.1-5.88,30.73-2.22-13.54,6.92-14,15.65-14,15.65l.06.07a17.35035,17.35035,0,0,1,9.52-5.8c8.7-2,17.18,2.57,18.94,10.23C124.50865,73.68,120.31865,80.57,113.32866,83.48Z"/></g></g></svg>