<?xml version="1.0" encoding="utf-8"?>
<!-- Generator: Adobe Illustrator 22.1.0, SVG Export Plug-In . SVG Version: 6.00 Build 0)  -->
<!DOCTYPE svg PUBLIC "-//W3C//DTD SVG 1.1//EN" "http://www.w3.org/Graphics/SVG/1.1/DTD/svg11.dtd">
<svg version="1.1" id="Layer_1" xmlns:sketch="http://www.bohemiancoding.com/sketch/ns"
	 xmlns="http://www.w3.org/2000/svg" xmlns:xlink="http://www.w3.org/1999/xlink" x="0px" y="0px" viewBox="0 0 21 21"
	 style="enable-background:new 0 0 21 21;" xml:space="preserve">
<style type="text/css">
	.st0{fill:none;stroke:#00B0CD;stroke-width:1.5;}
	.st1{fill:#00B0CD;}
</style>
<title>Oval 1 + Shape</title>
<desc>Created with Sketch.</desc>
<g id="Page-1" sketch:type="MSPage">
	<g id="Oval-1-_x2B_-Shape" transform="translate(1.000000, 1.000000)" sketch:type="MSLayerGroup">
		<circle id="Oval-1" sketch:type="MSShapeGroup" class="st0" cx="9.5" cy="9.5" r="9.5">
		</circle>
		<path id="Shape" sketch:type="MSShapeGroup" class="st1" d="M14.1,10.9c0,0-3,3-3.8,3.8c-0.1,0.1-0.3,0.1-0.4,0
			c-0.3-0.3-0.7-0.7-1-1c-0.1-0.1-0.1-0.3,0-0.4l2.5-2.5H4.3c-0.2,0-0.3-0.1-0.3-0.3c0-0.4,0-1,0-1.4C4,9,4.1,8.9,4.3,8.9h7.1
			L8.9,6.5c-0.1-0.1-0.1-0.3,0-0.4c0.3-0.3,0.7-0.7,1-1C10,5,10.2,5,10.3,5.1L14,8.8c0,0,0.6,0.6,0.9,0.9c0.1,0.1,0.1,0.3,0,0.4
			L14.1,10.9L14.1,10.9L14.1,10.9z"/>
	</g>
</g>
</svg>
