<svg xmlns="http://www.w3.org/2000/svg" viewBox="0 0 69.7 64.6"><g id="Layer_2" data-name="Layer 2"><g id="Layer_1-2" data-name="Layer 1"><ellipse cx="38.5" cy="44.1" rx="9.8" ry="12.3" style="fill:#ff9e1d;opacity:0.5;isolation:isolate"/><rect x="1" y="23" width="67.7" height="40.6" style="fill:none;stroke:#000;stroke-linecap:round;stroke-linejoin:round;stroke-width:2px"/><ellipse cx="34.8" cy="43.3" rx="9" ry="11.3" style="fill:none;stroke:#000;stroke-linecap:round;stroke-linejoin:round;stroke-width:2px"/><line x1="57.4" y1="32" x2="59.7" y2="32" style="fill:none;stroke:#000;stroke-linecap:round;stroke-linejoin:round;stroke-width:3px"/><line x1="10" y1="54.5" x2="12.3" y2="54.5" style="fill:none;stroke:#000;stroke-linecap:round;stroke-linejoin:round;stroke-width:3px"/><line x1="36.3" y1="1" x2="36.3" y2="10.8" style="fill:none;stroke:#000;stroke-linecap:round;stroke-linejoin:round;stroke-width:2px"/><line x1="18.2" y1="5.9" x2="24.7" y2="12.5" style="fill:none;stroke:#000;stroke-linecap:round;stroke-linejoin:round;stroke-width:2px"/><line x1="54.4" y1="5.9" x2="47.8" y2="12.5" style="fill:none;stroke:#000;stroke-linecap:round;stroke-linejoin:round;stroke-width:2px"/><path d="M35.4,43a2,2,0,0,1,0-4h2" style="fill:none;stroke:#000;stroke-linecap:round;stroke-linejoin:round;stroke-width:2px"/><path d="M35.4,43a2,2,0,1,1,0,4h-2" style="fill:none;stroke:#000;stroke-linecap:round;stroke-linejoin:round;stroke-width:2px"/><line x1="35.4" y1="37" x2="35.4" y2="39" style="fill:none;stroke:#000;stroke-linecap:round;stroke-linejoin:round;stroke-width:2px"/><line x1="35.4" y1="47" x2="35.4" y2="49" style="fill:none;stroke:#000;stroke-linecap:round;stroke-linejoin:round;stroke-width:2px"/></g></g></svg>