<svg xmlns="http://www.w3.org/2000/svg" viewBox="0 0 77.952 77.666"><defs><style>.cls-1{fill:#fc326c;opacity:0.53;}.cls-2{fill:none;stroke:#000;stroke-linecap:round;stroke-linejoin:round;stroke-width:2px;}</style></defs><title>Asset 1</title><g id="Layer_2" data-name="Layer 2"><g id="Layer_1-2" data-name="Layer 1"><polygon class="cls-1" points="31.068 46.598 0 54.922 22.743 77.666 31.068 46.598"/><path class="cls-2" d="M44.855,49.528c21.3-4.246,34.9-22.5,31.608-48.038C50.922-1.8,32.67,11.8,28.424,33.1Z"/><path class="cls-2" d="M65.879,17.762a4.023,4.023,0,1,1,0-5.689A4.024,4.024,0,0,1,65.879,17.762Z"/><polyline class="cls-2" points="44.855 49.527 42.309 56.718 21.234 35.643 28.424 33.096"/><polyline class="cls-2" points="35.346 55.927 30.396 64.526 28.612 54.89 21.911 56.041 23.061 49.34 13.426 47.555 22.023 42.606"/><polyline class="cls-2" points="30.089 26.085 18.332 14.327 37.144 14.327"/><polyline class="cls-2" points="51.867 47.862 63.625 59.62 63.624 40.807"/></g></g></svg>