<svg xmlns="http://www.w3.org/2000/svg" viewBox="0 0 145 90"><g id="Layer_2" data-name="Layer 2"><g id="Layer_1-2" data-name="Layer 1"><circle cx="29.74569" cy="68.58896" r="20.34619" style="fill:#ff9e1d;opacity:0.4399999976158142;isolation:isolate"/><circle cx="121.66783" cy="41.96385" r="10.4495" style="fill:none;stroke:#000;stroke-miterlimit:10;stroke-width:2.490412473678589px"/><circle cx="85.09457" cy="34.99752" r="13.93267" style="fill:none;stroke:#000;stroke-miterlimit:10;stroke-width:2.490412473678589px"/><path d="M107.73516,71.57078V68.08761a13.93329,13.93329,0,0,1,13.93267-13.93267h0a13.93327,13.93327,0,0,1,13.93266,13.93267h0v3.48317Z" style="fill:none;stroke:#000;stroke-linecap:round;stroke-linejoin:round;stroke-width:2.490412473678589px"/><circle cx="48.52131" cy="41.96385" r="10.4495" style="fill:none;stroke:#000;stroke-miterlimit:10;stroke-width:2.490412473678589px"/><path d="M34.58864,71.57078V68.08761A13.93329,13.93329,0,0,1,48.52131,54.15494h0A13.93328,13.93328,0,0,1,62.454,68.08761h0v3.48317Z" style="fill:none;stroke:#000;stroke-linecap:round;stroke-linejoin:round;stroke-width:2.490412473678589px"/><path d="M64.19556,71.57078a20.899,20.899,0,0,1,41.798,0V75.054h-41.798Z" style="fill:none;stroke:#000;stroke-linecap:round;stroke-linejoin:round;stroke-width:2.490412473678589px"/><rect width="145" height="90" style="fill:none"/></g></g></svg>