<svg xmlns="http://www.w3.org/2000/svg" viewBox="0 0 88.62167 67.30288"><g id="Layer_2" data-name="Layer 2"><g id="Layer_1-2" data-name="Layer 1"><rect x="-5.94885" y="14.39167" width="38.40943" height="9.74433" transform="translate(36.47664 16.50534) rotate(117.75806)" style="fill:#12e3a3;opacity:0.51"/><rect x="16.36992" y="35.6525" width="9.62493" height="17.75883" rx="4.81246" transform="translate(29.65554 -4.04782) rotate(35.33277)" style="fill:none;stroke:#000;stroke-linecap:round;stroke-linejoin:round;stroke-width:2px"/><rect x="24.93287" y="40.21612" width="9.62493" height="17.75883" rx="4.81246" transform="translate(33.64599 -8.17523) rotate(35.10661)" style="fill:none;stroke:#000;stroke-linecap:round;stroke-linejoin:round;stroke-width:2px"/><rect x="32.61266" y="47.59408" width="9.62494" height="14.60026" rx="4.81247" transform="translate(38.37791 -11.53701) rotate(35.10663)" style="fill:none;stroke:#000;stroke-linecap:round;stroke-linejoin:round;stroke-width:2px"/><rect x="40.2417" y="55.13042" width="9.62498" height="11.33261" rx="4.81248" transform="translate(43.16029 -14.85071) rotate(35.10662)" style="fill:none;stroke:#000;stroke-linecap:round;stroke-linejoin:round;stroke-width:2px"/><path d="M63.55334,40.97072l6.23434,4.11492a4.431,4.431,0,0,0,6.12352-1.25627h0a4.43849,4.43849,0,0,0-1.25715-6.12782L51.28619,22.17645a3.53037,3.53037,0,0,0-4.58164.57748L43.30621,26.5321a4.82661,4.82661,0,0,1-6.79634.3597h0a4.82662,4.82662,0,0,1-.3597-6.79634L41.58969,14.048h0a9.41867,9.41867,0,0,1,7.59072-2.839l18.58678,1.618" style="fill:none;stroke:#000;stroke-linecap:round;stroke-linejoin:round;stroke-width:2px"/><path d="M62.15483,40.051l6.25164,4.091A4.43779,4.43779,0,0,1,69.68666,50.264h0a4.43031,4.43031,0,0,1-6.11741,1.28117l-6.25163-4.091" style="fill:none;stroke:#000;stroke-linecap:round;stroke-linejoin:round;stroke-width:2px"/><path d="M58.577,48.28059,62.401,50.783a4.43779,4.43779,0,0,1,1.2802,6.12208h0a4.43032,4.43032,0,0,1-6.11742,1.28117l-3.824-2.50236" style="fill:none;stroke:#000;stroke-linecap:round;stroke-linejoin:round;stroke-width:2px"/><path d="M55.464,56.85985l1.31247.85887a4.43781,4.43781,0,0,1,1.2802,6.1221h0A4.43034,4.43034,0,0,1,51.93924,65.122l-1.31247-.85887" style="fill:none;stroke:#000;stroke-linecap:round;stroke-linejoin:round;stroke-width:2px"/><rect x="12.19946" y="4.17998" width="8.88424" height="33.66152" transform="translate(11.85634 -5.3615) rotate(28.09661)" style="fill:none;stroke:#000;stroke-linecap:round;stroke-linejoin:round;stroke-width:2px"/><rect x="72.5719" y="4.08832" width="7.59544" height="33.66152" transform="translate(-0.88525 38.28606) rotate(-27.98818)" style="fill:none;stroke:#000;stroke-linecap:round;stroke-linejoin:round;stroke-width:2px"/><line x1="18.09843" y1="40.31207" x2="15.52491" y2="33.0033" style="fill:none;stroke:#000;stroke-linecap:round;stroke-linejoin:round;stroke-width:2px"/><line x1="75.89948" y1="38.76797" x2="79.24505" y2="36.45181" style="fill:none;stroke:#000;stroke-linecap:round;stroke-linejoin:round;stroke-width:2px"/><polyline points="26.848 11.334 32.15 14.371 40.848 14.268" style="fill:none;stroke:#000;stroke-linecap:round;stroke-linejoin:round;stroke-width:2px"/></g></g></svg>