<svg xmlns="http://www.w3.org/2000/svg" viewBox="0 0 8351.68213 2740.10339"><g id="Layer_2" data-name="Layer 2"><g id="Layer_1-2" data-name="Layer 1"><rect width="8351.68213" height="2740.10339"/><path d="M5739.61719,2740.10339c45.918-71.57674,65.6104-155.61519,75.91742-239.03377,2.12352-18.70816-.63483-34.90027-10.16271-51.10641q-1.19616-19.34923-2.57722-38.69868c-6.02768-63.05962-95.33872-77.329-120.74689-19.2272-9.381,19.93-3.97708,43.02665-3.25561,64.325a371.472,371.472,0,0,0-35.33677,69.23166c-16.94208,45.02279-29.82485,91.5118-40.44823,138.39234-5.104,24.616-12.98742,51.86929-5.30088,76.117Z" style="fill:#1c1c1c"/><path d="M7293.04468,2740.10339c8.69234-28.27347,12.06977-57.55017,17.49763-86.52322,4.26118-25.65294,7.79374-52.22557-6.90049-75.19345-1.75525-28.40961.08769-61.78029-25.36858-80.72967-30.473-26.38-82.4112-14.43117-97.95363,22.80277-9.37966,19.927-3.97881,43.03-3.2557,64.32577-31.37623,46.953-47.646,101.49363-62.86518,155.3178Z" style="fill:#1c1c1c"/><path d="M6606.25926,2338.69643c19.89483,27.6638,60.92131,34.916,88.52895,14.4629,51.745-26.72533,89.56757-141.06234,102.0992-196.26665,4.72836-19.72034,6.44476-39.95946,10.665-59.81308,4.25845-25.64824,7.7937-52.22957-6.90184-75.19368q-1.19351-19.34959-2.57549-38.69886c-2.68172-33.88636-36.557-60.45485-70.04848-56.0372-34.242,3.25765-59.907,35.93913-56.05089,70.044,2.3579,30.10465,5.07608,28.10133-11.57359,53.80289-31.05808,57.45087-46.97584,121.79024-62.11539,184.91176C6589.83358,2270.4298,6582.27815,2308.53575,6606.25926,2338.69643Z" style="fill:#1c1c1c"/><path d="M5401.6336,2300.84388c27.52033,24.15867,73.22184,17.7167,93.56887-12.80817,15.9437-31.25536,23.16512-66.50385,32.62137-100.15631,5.26218-31.98152,37.69848-44.34965,32.26237-82.67217a63.79034,63.79034,0,0,0-12.71582-31.57658c3.8337-37.36942-1.23225-78.8437-41.275-94.39828-39.98973-16.81119-81.61362,5.08409-103.61649,39.58823-18.99965,28.81014-34.18194,59.68464-43.07725,93.05623C5374.049,2174.71829,5386.63228,2238.13411,5401.6336,2300.84388Z" style="fill:#1c1c1c"/><path d="M5382.11023,2740.10339c6.46791-23.0886,10.78237-41.88746,3.15514-64.98363-11.77829-35.83445-56.3834-53.302-90.37344-39.02561-15.09162,5.5823-30.1787,19.97769-39.33525,33.6765-21.11038,19.51641-35.09088,45.52287-49.06913,70.33274Z" style="fill:#1c1c1c"/><path d="M6062.81179,1802.12919c11.33711-36.75176,30.90772-74.75033,23.88324-113.99817-7.441-35.11136-37.26753-66.0678-73.12472-71.42591-36.71106,50.30358-95.31093,77.72416-153.71181,94.82559-35.68337,55.73957-33.73327,42.18583-23.00371,106.34507,6.094,46.862,10.61523,94.02189,13.60935,141.20165q-.441-7.10973-.89095-14.20931,2.7396,40.16514,5.36366,80.34755c12.3057,25.06261,23.69342,50.46808,36.08259,75.56123,73.69032-51.24756,48.79477-2.86768,89.44681-91.93407C6012.08811,1941.68983,6038.51173,1872.22689,6062.81179,1802.12919Z" style="fill:#1c1c1c"/><path d="M4362.47754,2465.18726c6.09559,46.86191,10.61672,94.02182,13.6109,141.20153q-.441-7.10979-.891-14.20935,2.73956,40.16512,5.36365,80.34753c10.94647,22.43572,21.34857,45.00178,32.14221,67.57642h16.36218c14.83916-9.666,30.82-19.75923,47.99424-23.948,37.02691-72.48669,68.7115-147.61216,96.3263-224.14534,13.61667-45.63751,47.41635-110.53544,38.9341-156.56755-7.428-35.15357-37.27833-66.03767-73.12555-71.42605-36.71069,50.30213-95.31126,77.72509-153.71184,94.82565C4349.83336,2414.52034,4351.7363,2401.04524,4362.47754,2465.18726Z" style="fill:#1c1c1c"/><path d="M7914.87223,171.27842c-15.87335-33.93621-55.76918-52.06505-92.00907-45.26049-26.31459,2.91166-43.80051,22.416-61.637,39.08121-38.64125,19.30086-43.3,52.79065-51.37055,91.12314-27.90555,49.26662-40.02722,125.59337,21.87593,154.128,33.18116,24.95782,79.31851,21.367,110.46364-4.92114,39.746-34.9366,55.37711-89.351,71.25129-138.13368C7922.05935,236.52568,7930.84139,201.21479,7914.87223,171.27842Z" style="fill:#1c1c1c"/><path d="M8351.68213,2012.4906c-29.49012-12.74672-64.26728-5.77561-88.70063,14.00882-6.97611,5.37687-12.25922,12.62942-18.31676,18.97867-6.97849,3.38612-13.12331,8.32495-19.75821,12.35816-24.48876,19.41747-27.37128,51.56367-34.17117,79.9354-11.91978,24.31471-22.64351,49.803-23.42185,77.34152-1.77381,31.89288,15.88054,63.49615,45.297,76.78727,20.7922,14.48865,42.62622,19.95542,67.54869,15.56729,28.14586-4.96031,52.50235-24.99,67.74349-48.48987,1.319-1.94759,2.56408-3.94222,3.77941-5.9554Z" style="fill:#1c1c1c"/><path d="M6858.05542,2740.10339c3.67033-54.22994-48.03451-97.87207-100.81766-87.31555-24.51079,3.56076-43.762,19.47865-59.07774,37.9093-20.38343,10.12454-37.92228,26.84451-43.87169,49.40625Z" style="fill:#1c1c1c"/><path d="M8309.65332,2740.10339c10.35264-34.62368,23.31205-74.60792,5.40374-108.93619-29.99262-60.6693-113.43847-60.35711-151.08778-7.34818-54.77268,25.91963-40.53091,70.77385-64.81889,116.28437Z" style="fill:#1c1c1c"/><path d="M7919.45243,2313.89649c-33.64587-41.37222-102.69771-34.43217-128.61559,11.70751-32.73122,25.866-58.59629,61.47615-80.67855,96.76816-33.4553,54.19027-65.34532,124.18372.63955,168.71456,61.80551,38.17682,112.21828-7.63161,148.60977-56.26552,19.84381-26.0705,35.79853-54.86469,50.92158-83.8718C7934.09692,2410.26613,7954.49009,2354.26061,7919.45243,2313.89649Z" style="fill:#1c1c1c"/><path d="M6372.776,1955.888c-8.51211-50.036-66.65423-78.61915-111.87063-56.38321a78.60085,78.60085,0,0,0-31.32629,27.0155c-32.53491,36.07811-62.31121,74.458-84.80839,117.651-26.11006,58.46034-94.575,135.94856-43.60839,197.256,29.65956,35.23455,83.8495,35.4241,118.40119,6.48516,32.64236-32.78811,57.23225-72.60162,83.84882-110.2613,21.25307-33.11219,46.63694-63.91142,63.61029-99.5128a78.99907,78.99907,0,0,0,2.58319-41.02624C6374.62248,1983.82288,6375.315,1969.80545,6372.776,1955.888Z" style="fill:#1c1c1c"/><path d="M5184.86077,2309.052c-8.51211-50.036-66.65423-78.61914-111.87063-56.3832a78.60091,78.60091,0,0,0-31.32629,27.01549c-32.53491,36.07812-62.31121,74.458-84.80839,117.651-26.11006,58.46033-94.575,135.94855-43.60839,197.256,29.65956,35.23455,83.84949,35.4241,118.40119,6.48516,32.64235-32.78812,57.23225-72.60162,83.84881-110.2613,21.25308-33.11219,46.637-63.91143,63.6103-99.51281a78.99906,78.99906,0,0,0,2.58319-41.02624C5186.70722,2336.98688,5187.39972,2322.96945,5184.86077,2309.052Z" style="fill:#1c1c1c"/><path d="M7592.79711,1998.69579c-8.51211-50.036-66.65423-78.61914-111.87063-56.3832a78.60091,78.60091,0,0,0-31.32629,27.01549c-32.53491,36.07812-62.31121,74.458-84.80839,117.651-26.11006,58.46034-94.575,135.94855-43.60839,197.256,29.65956,35.23455,83.8495,35.4241,118.40119,6.48516,32.64236-32.78812,57.23225-72.60162,83.84882-110.2613,21.25307-33.11219,46.63694-63.91143,63.61029-99.51281a78.999,78.999,0,0,0,2.58319-41.02623C7594.64356,2026.63064,7595.33606,2012.61321,7592.79711,1998.69579Z" style="fill:#1c1c1c"/><path d="M3207.507,2273.2994c19.89483,27.66379,60.92131,34.916,88.52895,14.4629,51.745-26.72533,89.56757-141.06234,102.0992-196.26666,4.72835-19.72033,6.44476-39.95946,10.665-59.81308,4.25845-25.64824,7.7937-52.22956-6.90184-75.19368q-1.1935-19.34958-2.57549-38.69886c-2.68172-33.88635-36.557-60.45485-70.04848-56.03719-34.242,3.25764-59.907,35.93913-56.05089,70.044,2.35789,30.10465,5.07608,28.10133-11.57359,53.8029-31.05808,57.45087-46.97584,121.79024-62.1154,184.91175C3191.08127,2205.03276,3183.52584,2243.13871,3207.507,2273.2994Z" style="fill:#1c1c1c"/><path d="M2358.74315,2116.53161c-8.51211-50.036-66.65423-78.61915-111.87063-56.3832a78.60075,78.60075,0,0,0-31.32629,27.01549c-32.53491,36.07811-62.31121,74.458-84.80839,117.651-26.11006,58.46034-94.575,135.94856-43.60839,197.256,29.65956,35.23455,83.8495,35.42409,118.40119,6.48516,32.64236-32.78812,57.23225-72.60163,83.84881-110.2613,21.25308-33.11219,46.637-63.91143,63.6103-99.51281a78.99907,78.99907,0,0,0,2.58319-41.02624C2360.5896,2144.46645,2361.2821,2130.449,2358.74315,2116.53161Z" style="fill:#1c1c1c"/><path d="M1971.65437,1026.78854c1.61532-39.47521,11.07655-81.64648-5.20576-119.14635-14.82729-31.74372-53.43093-55.11909-89.12448-47.02482-31.52211,41.55987-61.71554,84.10668-91.448,126.95959-9.62815,39.30464-13.13182,79.81936-14.65873,120.16112-.62825,12.89021-1.80754,25.87848-1.71957,38.80294,1.13706,10.53806-2.412,22.50219,2.48275,32.09507,30.80918,64.83518,116.54733,72.37431,157.83477,14.63925,16.56962-25.04784,25.83912-53.30361,30.74589-82.6339C1980.07247,1086.3456,1977.12333,1055.39074,1971.65437,1026.78854Z" style="fill:#1c1c1c"/><path d="M2098.5141,2018.75494c37.41088-42.67853,47.32929-111.41493,62.37335-165.30661,8.92186-33.11606,10.70545-67.59849-10.022-95.87872-26.29592-36.22746-81.13006-43.6927-115.08766-13.76012-40.9442,23.9774-44.247,77.032-60.89682,117.245-8.8112,29.09051-17.97729,58.72293-21.583,88.98966C1941.36823,2030.70576,2044.376,2083.85424,2098.5141,2018.75494Z" style="fill:#1c1c1c"/><path d="M1767.80082,1744.22017c44.54772-35.16433,66.79961-100.95129,91.39236-151.20895,14.79484-30.94165,22.81887-64.52489,7.57934-96.10267-19.27005-40.40507-71.83257-57.71674-110.6669-34.45792-44.62158,16.1325-57.51662,67.702-81.20106,104.217-13.954,27.00334-28.35558,54.475-37.4048,83.58151C1611.10168,1727.39683,1702.72776,1798.38986,1767.80082,1744.22017Z" style="fill:#1c1c1c"/><path d="M7110.89749,974.13294c-15.87336-33.9362-55.76918-52.065-92.00908-45.26049-26.31459,2.91166-43.80051,22.416-61.637,39.08122-38.64124,19.30086-43.3,52.79065-51.37055,91.12313-27.90554,49.26662-40.02722,125.59338,21.87593,154.128,33.18116,24.95783,79.31852,21.367,110.46364-4.92114,39.746-34.93659,55.37711-89.351,71.2513-138.13367C7118.0846,1039.38021,7126.86665,1004.06932,7110.89749,974.13294Z" style="fill:#1c1c1c"/><path d="M8098.62343,1459.47725c-15.87335-33.93621-55.76918-52.065-92.00907-45.26049-26.31459,2.91166-43.80051,22.416-61.637,39.08122-38.64125,19.30085-43.3,52.79064-51.37055,91.12313-27.90555,49.26662-40.02722,125.59337,21.87593,154.128,33.18116,24.95782,79.31851,21.367,110.46364-4.92114,39.746-34.93659,55.37711-89.351,71.25129-138.13367C8105.81055,1524.72451,8114.59259,1489.41363,8098.62343,1459.47725Z" style="fill:#1c1c1c"/><path d="M6780.66879,1351.2841c-15.87336-33.9362-55.76918-52.065-92.00907-45.26049-26.31459,2.91166-43.80051,22.416-61.637,39.08122-38.64124,19.30086-43.3,52.79065-51.37054,91.12313-27.90555,49.26662-40.02723,125.59338,21.87592,154.128,33.18116,24.95783,79.31852,21.36705,110.46364-4.92114,39.746-34.93659,55.37711-89.351,71.2513-138.13367C6787.8559,1416.53137,6796.638,1381.22048,6780.66879,1351.2841Z" style="fill:#1c1c1c"/><path d="M6872.44172,454.26837c-15.87336-33.93621-55.76918-52.065-92.00907-45.26049-26.31459,2.91166-43.80051,22.416-61.637,39.08122-38.64124,19.30085-43.3,52.79064-51.37055,91.12313-27.90554,49.26662-40.02722,125.59337,21.87593,154.128,33.18116,24.95782,79.31852,21.367,110.46364-4.92114,39.746-34.93659,55.37711-89.351,71.2513-138.13367C6879.62883,519.51563,6888.41088,484.20475,6872.44172,454.26837Z" style="fill:#1c1c1c"/><path d="M7240.45244,1485.02117c-33.64587-41.37223-102.69772-34.43218-128.6156,11.7075-32.73122,25.866-58.59628,61.47615-80.67855,96.76817-33.4553,54.19027-65.34532,124.18372.63956,168.71456,61.8055,38.17681,112.21827-7.63161,148.60976-56.26552,19.84382-26.0705,35.79854-54.86469,50.92159-83.8718C7255.09693,1581.39081,7275.4901,1525.38529,7240.45244,1485.02117Z" style="fill:#1c1c1c"/><path d="M1597.46323,744.19432c1.61532-39.47521,11.07655-81.64648-5.20576-119.14635-14.82729-31.74372-53.43092-55.11909-89.12448-47.02482-31.52211,41.55987-61.71554,84.10668-91.448,126.95959-9.62815,39.30464-13.13182,79.81936-14.65873,120.16112-.62825,12.89021-1.80753,25.87848-1.71957,38.80294,1.13706,10.53806-2.412,22.50219,2.48275,32.09507,30.80918,64.83518,116.54733,72.37431,157.83477,14.63925,16.56962-25.04784,25.83912-53.30361,30.74589-82.6339C1605.88133,803.75138,1602.93219,772.79652,1597.46323,744.19432Z" style="fill:#1c1c1c"/><path d="M1006.38813,2188.314c11.33711-36.75176,30.90772-74.75033,23.88324-113.99817-7.441-35.11137-37.26753-66.0678-73.12472-71.42592-36.711,50.30358-95.31092,77.72416-153.7118,94.8256-35.68338,55.73957-33.73328,42.18583-23.00371,106.34507,6.094,46.862,10.61522,94.02189,13.60935,141.20164q-.441-7.10972-.891-14.2093,2.7396,40.16514,5.36367,80.34755c12.3057,25.0626,23.69341,50.46808,36.08258,75.56122,73.69032-51.24755,48.79477-2.86768,89.44681-91.93407C955.66445,2327.87461,982.08807,2258.41167,1006.38813,2188.314Z" style="fill:#1c1c1c"/><path d="M674.1267,1619.90255c-8.51211-50.036-66.65423-78.61914-111.87063-56.3832a78.60091,78.60091,0,0,0-31.32629,27.01549c-32.53491,36.07812-62.31121,74.458-84.80839,117.651-26.11006,58.46034-94.575,135.94856-43.60839,197.256,29.65956,35.23455,83.84949,35.42409,118.40119,6.48516,32.64235-32.78812,57.23225-72.60163,83.84881-110.2613,21.25308-33.11219,46.63694-63.91143,63.61029-99.51281a78.999,78.999,0,0,0,2.5832-41.02624C675.97315,1647.8374,676.66565,1633.82,674.1267,1619.90255Z" style="fill:#1c1c1c"/><path d="M1434.25,1509.163c-2.61768-37.10363-13.93628-75.34161-23.50391-110.31488-11.854-42.12805-25.127-83.77826-38.437-125.19073-21.80224-52.80042-40.75781-90.56793-40.75781-90.56793.64819-6.67267,4.36865-26.33393,5.01269-32.28357-6.96289-26.267-13.32275-51.58185-20.87109-77.94562-28.926-96.54431-69.54736-190.00537-119.63574-280.0368-20.96655-36.36182-41.05884-75.00507-66.17163-107.20594-9.9375-12.85455-21.2605-24.08984-32.49024-35.06238-84.082-74.13806-164.85913-130.40539-243.80664-195.385C790.364,401.09534,739.22,329.58148,697.47534,259.27039c-43.56079,25.51-87.10473,45.2854-130.405,69.12774-61.1167,33.87281-119.39941,70.6388-181.3667,103.54383a420.88713,420.88713,0,0,1-52.77905,23.07983c-9.4602,1.97186-83.76367,35.57587-79.77783,16.71008,3.10278-5.46209,9.71655-8.10888,14.36328-12.16479,11.34546-8.33631,22.33545-16.8783,33.39429-25.93671,19.22509-15.52887,36.15869-33.61328,54.16137-50.57892,20.81128-19.84582,42.79346-38.6502,65.416-56.362,13.75415-10.59143,28.10986-20.8247,42.62549-30.30481,54.25244-33.96923,134.573-86.25634,183.404-120.41455C435.06982,29.0448,231.06836,9.29089,0,54.76575V1103.54431c17.08105-38.11816,35.32031-75.726,51.94165-114.18866,28.5022-63.28784,49.85156-126.60681,74.02075-192.06433,1.88916-5.5343,5.78223-16.81659,12.55615-8.66931,2.37061,6.12726,1.39185,13.07648,1.48951,19.70459-4.31617,87.14007-24.10669,172.87567-32.63452,259.67688-7.065,66.90167-11.80542,134.2633-15.44068,201.77942-2.27173,41.13074-4.26684,85.93768-10.01514,127.33392,109.9983,67.82709,165.38575,93.17743,295.84058,85.69849,43.575-108.88861,97.6853-213.86988,143.02637-322.62506,23.81982-58.16169,41.07226-117.88007,61.99267-177.44794,1.0337-4.90485,5.52637-13.81995,10.06739-5.68634,1.72021,7.127.38574,14.982.69165,22.32892-.55323,41.96124-1.97,83.97009-5.87744,125.65417-13.43873,122.94251-37.33057,244.93769-56.07227,367.13837,64.22485,14.57269,125.33618,46.5766,189.57227,60.40015,66.44213,15.26745,137.65844,20.79919,204.83178,13.83453,34.84107-4.2066,68.11963-16.28369,101.45191-25.85846,50.2915-14.66931,103.67016-11.01147,153.84594,1.315,54.86939,11.66413,104.79419,42.82306,158.16993,56.755C1406.67529,1612.17493,1438.62451,1575.27893,1434.25,1509.163Z" style="fill:#1c1c1c"/><path d="M8351.68213,869.85919C8118.67482,545.152,7639.01493,970.10666,7631.651,991.17669c-322.5409,153.17852,340.36776,1047.07768,720.03116,688.6764Zm-299.19922,542.13159s-252.499,0-210.41553-273.54174c0,0,189.374-263.01923,336.66553-42.0821C8326.02344,1317.30267,8052.48291,1411.99078,8052.48291,1411.99078Z" style="fill:#1c1c1c"/><path d="M8351.68213,467.44086c-92.71991-7.97574-175.53286-173.12555,0-233.6861V84.43518c-117.13916,30.42847-223.58106,136.85571-223.58106,136.85571s-149.51562,68.52784,62.29834,323.9502c55.9043,67.41394,110.50342,104.44061,161.28272,120.9447Z" style="fill:#1c1c1c"/><path d="M7464.139,374.702c-133.2433-122.5839-341.10284,85.27592-341.10284,85.27592s-127.91344,58.62687,53.29725,277.14538C7491.64479,1063.201,7721.97868,603.5401,7464.139,374.702ZM7336.22509,673.167s-127.91331,0-106.59427-138.57335c0,0,95.93478-133.24277,170.55121-21.31836C7474.79783,625.199,7336.22509,673.167,7336.22509,673.167Z" style="fill:#1c1c1c"/><path d="M36.73412,2303.22c.00527.00766,13.30334-44.21514,13.30564-44.21415Z" style="fill:#1c1c1c"/><path d="M4172.57953,2740.10339c-81.87451-320.82324-187.22284-668.28668-208.24255-761.20282-111.81824,191.689-314.301,495.99213-522.70105,761.20282ZM3819.77,2394.833c-12.99121,1.89172-17.46039-7.11707-19.56525-17.79944C3802.83441,2343.86438,3857.95276,2389.07263,3819.77,2394.833Zm-35.45313-68.61438c-1.31823,14.18316-29.10553,8.08447-30.88153-4.46039C3756.34521,2306.67548,3783.61176,2312.4859,3784.31683,2326.21863Zm-32.08038,310.46887c11.90833-2.12012,14.10883,24.4552.79309,23.714C3741.20416,2661.71216,3742.73273,2639.25659,3752.23645,2636.6875Zm-50.46466,30.55652c-4.45056-.80518-12.13159,3.68042-10.74066-6.42139C3691.24933,2628.13232,3738.45435,2662.9458,3701.77179,2667.244Z" style="fill:#1c1c1c"/><path d="M2867.11243,2075.16357a24.71851,24.71851,0,0,0,.99939-3.71789C2867.6062,2071.95221,2867.27826,2073.21161,2867.11243,2075.16357Z" style="fill:#1c1c1c"/><path d="M0,2518.79211c.52246-2.71,2.88062-4.8374,7.81787-4.95922,6.70142-.07935,14.26123.9873,15.56787,9.57568.92505,6.05847-5.4375,5.858-8.61865,6.95874-7.429,2.269-13.84375-3.67786-14.76709-9.06226v218.79834H745.05737c-26.9602-40.17419-55.47241-84.06176-84.91821-130.3938-9.94141,9.01-17.59277,3.49463-24.8252-3.02246-.94995-14.70337,15.71607-5.75427,23.0669.25562-167.89893-264.40186-365.46045-606.7439-476.17871-787.19208l-130.91651,435.106c8.9795,10.56671,16.01075,51.05633-6.8103,50.22815C25.40381,2325.02716,10.905,2356.29236,0,2393.69861ZM602.95093,2673.151c10.25757-6.8501,17.79931-.3114,25.23828,7.64868C620.58423,2684.33948,595.98438,2689.16833,602.95093,2673.151ZM433.11011,2420.10974c21.18139.34338,35.136,21.47022,6.42895,23.17261C417.21,2448.97937,417.5564,2416.43347,433.11011,2420.10974ZM378.72656,2232.4126c-11.13891,2.69531-16.24707-16.78327-3.834-18.49311C386.64014,2211.52515,390.8562,2230.4516,378.72656,2232.4126ZM361.157,2140.54675c23.05127-4.68188,20.14136,25.96173-1.155,26.93787C340.20093,2169.68719,344.23389,2137.65833,361.157,2140.54675ZM334.811,2554.28589c-12.28516,12.78723-25.27637-18.86536-11.58912-21.04749C332.53979,2532.78235,340.8501,2546.07556,334.811,2554.28589Zm-21.40333-288.49964c.64722-6.71026,2.50391-14.84167,12.19288-12.40826,16.16308-5.74463,12.17431,24.12329-1.57862,22.024C318.2583,2275.40808,312.7666,2272.3446,313.40771,2265.78625Zm21.62061,53.80018c2.09766,11.762-22.20752,11.85571-24.00391,2.54058C307.99707,2309.1911,332.09692,2310.0968,335.02832,2319.58643ZM280.446,2441.53687c11.89527-.02283,23.99878,19.40148,5.42457,18.911C274.33765,2462.95422,264.93994,2441.06384,280.446,2441.53687Zm-86.53588,119.63549c-.03638,4.8739-6.85865,7.77991-10.51172,6.27869-11.61817-4.77808-5.75171-16.16943-9.71314-26.64136C187.39014,2543.3291,194.00684,2549.68054,193.91016,2561.17236ZM78.38037,2599.6106c11.93262,2.08984,16.34766,11.022,18.28931,24.1C86.19287,2622.14,66.43384,2610.22766,78.38037,2599.6106Z" style="fill:#1c1c1c"/><path d="M939.46362,2740.10339h215.136c2.65576-2.94165,7.09009-4.85241,13.312-4.384,6.23071-1.34863,10.66162.83984,13.15015,4.384h190.63061c-2.95849-11.426-7.48486-23.00634-2.66675-36.96972,34.19751,18.47534,18.52222,21.26806,16.74537,36.96972h543.59253C1823.282,2372.39709,1631.292,1863.331,1607.74316,1739.68494l-272.59765,446.979c6.47656-4.63946,15.19775,12.7688,3.69555,17.4621-7.125,4.29437-13.94116,10.0097-21.39233,11.55194L1146.7666,2495.55237c1.30029,5.84619-204.97558,223.64624-180.27978,229.42981,2.88134,11.59057-22.667,11.075-17.44239,3.81848Zm686.15625-134.14477c-12.20825,1.592-15.33178-17.6648-2.13379-18.07691C1637.71045,2585.76355,1640.26416,2605.52771,1625.61987,2605.95862Zm110.06861-234.65332c4.61462,10.09961,7.85034,20.92334,21.48877,21.036,9.254,3.01294,7.48584,18.30212-1.86426,17.95325-24.68469,8.17553-15.02112-20.51209-33.86157-24.69751C1704.61548,2377.62952,1730.62549,2347.5127,1735.68848,2371.3053Zm-109.32373-298.18707c22.23706.538,36.02856,32.28161,6.93579,32.04193-16.90308,5.43249-8.30249-14.61982-14.84644-17.39185C1615.65967,2077.51538,1618.84082,2073.114,1626.36475,2073.11823Zm10.65014,270.39276c5.17725-2.29389,3.272,5.25714,4.9292,8.26233-1.45483,13.49768-33.03906,32.21484-32.24829,12.28637C1612.16357,2347.65167,1626.69092,2348.08691,1637.01489,2343.511Zm-65.66308-451.00226c10.76587-1.2453,30.33423,15.894,13.53515,19.35858C1574.4248,1916.3623,1555.46924,1896.286,1571.35181,1892.50873Zm17.64257,829.06866c-1.98535,15.1366-21.68383,14.62573-34.57836,17.68006-16.18433,3.71386-22.19629-5.94226-20.10352-19.78406C1537.9126,2687.26428,1589.011,2694.16687,1588.99438,2721.57739ZM1550.64844,2597.022c1.42114,3.634-3.29639,4.78748-6.09644,4.703-11.26758-.34034-10.427-10.3656-12.82788-18.1587C1539.68945,2586.01379,1547.4248,2588.77173,1550.64844,2597.022Zm-90.605-591.9411c11.57617,1.48328,23.04931,6.78137,25.251,20.35687,3.12256,16.72272-44.01928,11.65424-41.85131-4.98248C1442.45605,2011.181,1450.45166,2003.85077,1460.04346,2005.08087Zm-21.70679,370.36041c19.35083,4.19568,35.89722,39.441,7.9873,43.24341C1427.22217,2418.10852,1415.00415,2372.14465,1438.33667,2375.44128Zm-160.64258,345.24781c-10.2998,1.61694-14.23706-6.65235-11.99292-19.64942C1258.50293,2656.08972,1344.18164,2704.28149,1277.69409,2720.68909Zm-5.12817-363.43946c7.75366-.90332,12.72534,3.48365,14.53345,10.8418C1288.01562,2393.46912,1248.656,2362.83826,1272.56592,2357.24963Zm-271.18238,315.35279c14.406-.38623,30.58814,19.92627,7.96924,22.574C997.92529,2697.65393,987.6958,2673.603,1001.38354,2672.60242Z" style="fill:#1c1c1c"/><path d="M2648.85327,2740.10339c-9.08044-1.8894-16.917-5.042-21.28882-9.13379-29.251-22.582-29.32959-22.46838,1.09229-41.43139-6.29-9.44922-24.65186-21.828,4.645-22.90674,17.85705-2.2583,4.40942-34.93823,26.83655-31.47022,11.89514,1.30469,25.04357,6.255,26.42248,18.40845,2.56427,22.63635,13.43854,41.82544,18.82141,63.13721,3.44812,12.77148-5.58655,20.15112-18.755,23.39648h280.45288c-30.619-253.65527-103.54993-622.77649-99.96765-664.93982-11.26807,32.02344-83.73712,21.59449-45.68347-13.68884,16.06457-5.30279,22.59722-34.43689,42.24346-21.7691l-23.58081-168.52552s-104.47387,56.76691-154.83673,324.79535c-22.76892,121.1922-156.009,340.35962-295.16455,544.12793Zm119.65808-447.17956c1.31317-12.95691,18.17432-14.84723,20.419-1.36963C2788.496,2303.64673,2766.74475,2304.32782,2768.51135,2292.92383Zm106.30652,361.83679c19.58069,8.86169-16.5105,42.22925-24.30029,47.05713-25.145-.67481.447-54.16187-43.03229-61.53076C2837.21149,2623.06372,2854.57526,2645.4574,2874.81787,2654.76062ZM2821.33069,2125.866c1.35565,12.71557-20.63721,15.62127-20.7879,3.14111C2800.28125,2117.21985,2821.56744,2112.20856,2821.33069,2125.866Zm-46.885,21.54144c32.21527,3.58215,43.47369,40.91956,1.57141,37.09582-8.23651-.07049-18.66925,2.922-23.59235-10.20782C2765.76672,2170.60016,2758.96869,2146.5932,2774.44568,2147.40741Z" style="fill:#1c1c1c"/><path d="M1331.75244,2192.22742l3.39307-5.56348C1333.87061,2187.57727,1332.68188,2189.33948,1331.75244,2192.22742Z" style="fill:#1c1c1c"/><rect y="1686.84247" width="4579.97037" height="1053.26093" style="fill:none"/></g></g></svg>